<svg width="443" height="96" viewBox="0 0 443 96" fill="none" xmlns="http://www.w3.org/2000/svg">
<g clip-path="url(#clip0_3394_14349)">
<rect width="443" height="96" fill="#FEFBEA"/>
<g clip-path="url(#clip1_3394_14349)">
<path d="M165 -12H-3V156H165V-12Z" fill="#FEFBEA"/>
<path d="M107.514 21.5158C112.396 17.7358 121.552 17.6518 125.584 25.5478C129.616 33.4438 129.28 42.4318 130.12 51.1678C130.96 59.9038 130.876 67.9678 132.388 69.8158C128.44 68.9758 127.264 66.2878 127.264 66.2878L127.432 69.4126C127.432 69.4126 121.038 68.8918 119.953 64.4398C119.284 65.1958 118.972 66.7918 118.972 66.7918C118.972 66.7918 115.971 66.019 115.336 62.6758C114.701 59.3326 107.514 21.5158 107.514 21.5158Z" fill="#4A4A4A"/>
<path opacity="0.6" d="M122.304 53.7852C123.48 49.9346 124.32 42.0957 123.396 35.9301C122.472 29.7645 119.704 28.5785 117.264 25.9073L108.24 25.3428C110.081 35.033 114.825 59.9911 115.332 62.6791C115.373 62.8908 115.423 63.0924 115.48 63.2839C119.331 60.5556 121.283 57.1418 122.304 53.7852Z" fill="#262626"/>
<path d="M115.756 52.666V67.1846C115.756 67.1846 113.125 68.9755 107.635 69.8726C102.148 70.7697 100.468 69.3115 100.468 69.3115L99.2751 52.666H115.756Z" fill="#FFD9BA"/>
<path d="M100.468 69.3115C100.468 69.3115 102.111 70.7327 107.453 69.8995C112.228 65.4307 114.674 59.7959 115.756 56.6107V52.666H99.2751L100.468 69.3115Z" fill="#F7A486"/>
<path d="M101.298 64.8321C100.354 64.8892 99.7926 65.3932 99.7926 65.783C99.7926 66.1761 99.7926 68.3265 99.7926 68.3265C99.7926 68.3265 86.6886 72.503 85.9057 72.839C85.1228 73.175 66.9217 79.8379 66.9217 79.8379C66.9217 79.8379 67.5366 78.1579 67.5366 77.375C67.5366 76.5921 66.6966 73.847 66.6966 73.847C66.6966 73.847 67.4795 68.135 67.4795 67.5201C67.4795 66.9052 67.2543 66.455 67.2543 66.455C67.2543 66.455 64.2875 67.0699 61.5423 66.791C58.7972 66.5121 56.8383 63.9921 56.8383 63.9921C56.8383 63.9921 55.6623 63.8241 55.3263 64.271C54.9903 64.7179 52.8063 70.4299 52.8063 70.4299C52.8063 70.4299 50.5652 71.8848 50.2292 72.9499C49.8932 74.015 49.5001 76.8139 49.5001 76.8139C49.5001 76.8139 46.6441 84.599 46.5332 87.1728C46.4223 89.7499 48.3241 96.0768 48.6063 96.6379C48.8852 97.199 52.2452 97.8139 55.7195 97.7568C59.1903 97.6997 78.5103 96.3556 79.3503 96.3019C82.3172 97.367 86.2652 98.291 86.2652 98.291C86.2652 98.291 86.9372 114.167 87.0212 118.871C86.1812 125.255 85.7612 135.503 85.7612 135.503H136.917L135.153 114.251C135.153 114.251 136.665 85.943 136.917 82.751C137.169 79.559 137.505 77.207 135.489 75.611C133.473 74.015 116.714 66.9187 116.714 66.9187C116.714 66.9187 116.546 64.4491 116.502 63.9619C116.458 63.4747 115.746 63.2529 115.746 63.2529L101.298 64.8321Z" fill="#F0DB2B"/>
<path d="M131.514 89.5596C131.514 89.5596 129.297 93.3496 128.994 97.3749C128.692 101.4 127.234 109.34 127.012 110.019C126.787 110.697 121.636 111.762 117.547 113.049C114.066 114.145 93.1029 115.364 86.9406 115.7C86.981 116.984 87.0112 118.086 87.0246 118.872C86.1846 125.256 85.7646 135.504 85.7646 135.504H136.921L135.157 114.252C135.157 114.252 135.976 98.9272 136.507 89.5596H131.514Z" fill="#2D4170"/>
<path d="M97.7798 71.328C99.2515 71.5397 100.428 72.252 100.764 72.6283C101.268 73.1323 102.951 75.3163 105.427 75.1449C113.407 74.6006 116.136 70.9349 116.895 70.1621C117.443 69.6043 114.459 72.084 111.727 72.9643C108.996 73.848 104.006 73.8883 104.003 73.3843C103.999 72.8803 104.167 69.4296 104.419 69.4128C104.648 69.396 110.091 67.1515 113.155 63.5361L101.304 64.8297C100.36 64.8869 99.7992 65.3909 99.7992 65.7806C99.7992 66.1737 99.7992 68.3241 99.7992 68.3241C99.7992 68.3241 96.876 69.2549 93.7075 70.2729C94.9138 70.6425 96.8189 71.1902 97.7798 71.328Z" fill="#847818"/>
<path d="M117.604 23.277C119.573 25.6458 119.751 28.7438 118.004 30.1953C116.256 31.6468 113.246 30.9042 111.277 28.5354C109.308 26.1666 109.13 23.0687 110.877 21.6172C112.624 20.1657 115.635 20.9082 117.604 23.277Z" fill="#DAC727"/>
<path d="M86.4399 61.0906C87.8242 62.5522 89.5882 63.4325 89.6285 63.2242C89.6688 63.0159 90.7205 44.3242 90.7205 44.3242H83.5368C83.5402 44.3209 82.6632 55.261 86.4399 61.0906Z" fill="#4A4A4A"/>
<path opacity="0.5" d="M83.9199 49.5149C83.9199 52.9824 86.2686 57.9754 89.7966 60.5861C90.1023 55.3882 90.7239 44.3203 90.7239 44.3203H84.6087L83.9199 49.5149Z" fill="#262626"/>
<path d="M85.9729 51.0433C87.001 55.9455 88.0863 59.9641 91.0666 63.2065C94.047 66.4455 97.5918 68.4985 100.512 68.3305C103.428 68.1625 112.742 65.5417 114.375 55.8347C115.685 53.7011 120.87 47.6665 118.672 38.4164C116.475 29.1697 107.961 22.0095 95.5287 25.6047C83.1001 29.1966 82.8514 42.4955 85.9729 51.0433Z" fill="#FFD9BA"/>
<path d="M86.356 25.548C88.708 23.112 93.029 18.9523 102.649 19.2043C112.268 19.4563 119.2 25.884 120.416 30.2923C121.633 34.7006 122.291 37.9464 122.291 37.9464C122.291 37.9464 122.735 49.1923 118.525 52.6665L115.541 46.8302C115.541 46.8302 108.777 47.2603 105.249 42.6L84.2963 45.4089C84.2997 45.4089 83.752 28.5283 86.356 25.548Z" fill="#4A4A4A"/>
<path opacity="0.5" d="M89.2656 39.2403L88.9733 33.8105C88.9733 33.8105 87.0178 37.4931 86.7759 39.4083L89.2656 39.2403Z" fill="#262626"/>
<path d="M88.1366 52.0075C88.3618 52.8845 89.0539 53.4691 89.6755 53.3078C90.3005 53.1499 90.623 52.3065 90.3979 51.4262C90.1728 50.5459 89.484 49.9646 88.859 50.1225C88.2341 50.2838 87.9115 51.1272 88.1366 52.0075Z" fill="#4A4A4A"/>
<path d="M101.362 49.4873C101.587 50.3676 102.343 50.9523 103.055 50.7944C103.764 50.6331 104.161 49.7864 103.935 48.906C103.714 48.0257 102.954 47.4411 102.245 47.599C101.533 47.7569 101.137 48.6036 101.362 49.4873Z" fill="#4A4A4A"/>
<path d="M91.6445 51.7156C90.6701 50.8319 89.7394 50.0994 88.9128 50.3346C88.0829 50.5698 87.6461 51.7458 87.6764 52.1255C87.4378 52.0852 86.7759 51.4166 86.7759 51.4166L87.2127 51.2082C87.421 50.5766 87.7133 49.7265 88.9733 49.5383C90.1661 49.3535 91.1909 50.3716 91.6445 51.7156Z" fill="#262626"/>
<path d="M100.108 49.8097C100.965 48.3045 103.683 46.4329 105.001 49.1881C105.787 48.9865 106.244 48.1936 106.244 48.1936C106.244 48.1936 105.807 48.0659 105.468 47.8744C104.712 47.2158 103.7 46.5841 102.333 46.9336C100.962 47.2796 100.229 48.4086 100.108 49.8097Z" fill="#262626"/>
<path d="M98.9929 46.4984L98.1831 45.813C98.1831 45.813 99.5909 45.0402 101.241 44.6638C102.89 44.2842 105.824 44.3245 105.824 44.3245C105.824 44.3245 101.56 45.4736 98.9929 46.4984Z" fill="#262626"/>
<path d="M91.1003 47.9855L91.3053 47.1119C91.3053 47.1119 90.0318 46.823 88.7819 46.9708C87.5354 47.122 85.6504 48.0359 85.6504 48.0359C85.6504 48.0359 88.9566 47.8142 91.1003 47.9855Z" fill="#262626"/>
<path d="M94.7021 54.1749C94.7021 54.1749 94.3661 55.9153 94.4769 56.3521C94.5878 56.7856 95.0078 57.0544 95.4917 57.2526C94.8096 57.3131 94.0771 56.8897 93.9326 56.332C93.7881 55.7709 94.7793 53.7481 94.7021 54.1749Z" fill="#B86E5E"/>
<path d="M96.4427 56.8936C96.1436 56.8701 96.1336 56.5375 96.4427 56.4434C96.7518 56.3493 97.3163 56.6853 97.3163 56.6853C97.3163 56.6853 96.6644 56.9071 96.4427 56.8936Z" fill="#B86E5E"/>
<path d="M113.212 50.4521C113.438 47.0853 115.144 45.3281 117.046 46.0001C118.948 46.6721 121.3 54.6487 113.942 55.6634L113.212 50.4521Z" fill="#FFD9BA"/>
<path d="M96.5871 61.8662C96.5871 61.8662 96.6274 61.8225 96.7551 61.7553C96.8156 61.7183 96.8928 61.678 96.9835 61.6444C97.0709 61.6074 97.1751 61.5604 97.2927 61.5268C97.4103 61.4898 97.5413 61.4562 97.6824 61.4226C97.8202 61.3823 97.9747 61.3622 98.136 61.342C98.2973 61.3218 98.462 61.2916 98.6333 61.2815C98.8047 61.2748 98.9794 61.2647 99.1541 61.2647C99.3288 61.2647 99.5069 61.2546 99.6783 61.2714C99.8496 61.2882 100.021 61.3017 100.182 61.3151C100.347 61.3286 100.501 61.3487 100.649 61.3689C100.797 61.3958 100.935 61.426 101.059 61.4529C101.567 61.5638 101.886 61.6679 101.886 61.6679C101.983 61.7015 102.03 61.7754 101.987 61.8359C101.963 61.8729 101.909 61.8964 101.852 61.8998H101.832C101.832 61.8998 101.489 61.93 101.005 61.9233C100.885 61.9199 100.753 61.9233 100.616 61.9132C100.478 61.9132 100.333 61.9233 100.186 61.9233C100.038 61.9233 99.8866 61.9233 99.732 61.9233C99.5741 61.9132 99.4229 61.9266 99.2683 61.9334C99.1171 61.9434 98.9592 61.9401 98.808 61.9434C98.6602 61.9502 98.5124 61.9602 98.3712 61.967C98.2301 61.977 98.0856 61.9737 97.9613 61.9905C97.8336 62.0039 97.7093 62.014 97.5917 62.0174C97.3666 62.0409 97.1818 62.0577 97.0507 62.0711C96.9264 62.0812 96.8357 62.098 96.8357 62.098C96.7215 62.1182 96.5938 62.0745 96.5535 61.9972C96.5266 61.9535 96.5367 61.9098 96.5703 61.8762L96.5871 61.8662Z" fill="#C92B24"/>
<path d="M82.6128 39.0822C82.6128 39.0822 83.3083 44.6766 84.7162 47.4822C97.6051 46.8942 115.121 41.0142 122.681 37.7785L120.584 29.3281C113.74 32.1841 99.5842 37.5164 82.6128 39.0822Z" fill="#DAC727"/>
<path d="M89.1917 38.2754C87.0548 38.6013 84.8607 38.8735 82.6162 39.0818C82.6162 39.0818 83.3117 44.6762 84.7196 47.4818C85.7477 47.4347 86.8095 47.3507 87.8914 47.2399C88.2913 44.1587 88.9666 39.7404 89.1917 38.2754Z" fill="#E0748A"/>
<path d="M89.044 33.6531C89.044 33.6531 84.1284 44.8789 85.18 55.6679L86.4837 61.2623L83.668 57.8048C83.668 58.8968 83.668 60.0325 83.668 60.0325C83.668 60.0325 81.4 55.1168 80.6037 48.5245C79.8074 41.9322 78.1677 29.9605 86.356 25.5488L89.044 33.6531Z" fill="#4A4A4A"/>
<path d="M111.932 44.1119C112.48 48.8159 112.997 52.868 113.495 52.4816C113.992 52.0919 116.055 46.4974 116.092 43.4062L111.932 44.1119Z" fill="#4A4A4A"/>
<path d="M66.9216 79.8379C66.9216 79.8379 65.5507 82.8888 65.4936 83.0568C65.4365 83.2248 66.1925 86.39 66.2093 87.1997C66.2227 88.0128 61.9387 92.3506 60.7627 93.3317C59.5867 94.3128 61.6867 93.4997 63.3096 92.2968C64.9325 91.094 67.9296 88.5739 68.1245 87.2299C68.3194 85.8859 67.0896 83.1711 67.0896 83.1711L68.3866 79.3037L66.9216 79.8379Z" fill="#847818"/>
<path d="M86.272 98.2923C86.356 94.9895 87.112 87.4294 87.028 87.1472C86.8028 87.2312 85.6571 91.6563 85.6571 91.6563C85.0691 87.9603 84.172 78.2163 83.9771 78.5792C83.7822 78.9421 83.4731 87.5941 83.2782 89.9461C83.0833 92.2981 83.8393 94.005 83.9502 94.3712C84.0611 94.7341 84.0913 95.8261 82.9691 95.6312C81.8502 95.4363 69.5862 90.4232 70.312 91.0112C71.0411 91.5992 79.3571 96.3032 79.3571 96.3032C79.3571 96.3032 82.7708 97.5363 86.272 98.2923Z" fill="#847818"/>
<path d="M58.1016 74.1262C54.5467 73.3131 53.2027 69.4121 53.2027 69.4121L52.8096 70.4302C52.8096 70.4302 53.2027 72.8662 57.7924 74.5462C62.3822 76.2262 66.6964 73.8473 66.6964 73.8473L66.8409 72.7889C66.8409 72.7889 64.0824 75.4903 58.1016 74.1262Z" fill="#847818"/>
<path d="M67.2578 66.455C67.2578 66.455 64.2909 67.0698 61.5458 66.791C58.8007 66.5121 56.8418 63.9921 56.8418 63.9921C56.8418 63.9921 59.5533 57.4132 59.6676 56.9932C59.7818 56.5732 59.429 54.4396 59.6676 53.2132C59.9061 51.9868 60.3127 49.7961 60.3127 49.7961L68.9916 48.7881L71.5687 56.8924C71.5687 56.8924 68.9076 59.8458 68.6018 60.3498C68.296 60.8538 67.2578 66.455 67.2578 66.455Z" fill="#FFD9BA"/>
<path d="M67.7751 50.2715L62.0699 49.5928L60.3159 49.7977C60.3159 49.7977 60.0035 51.4912 59.7649 52.7344C60.158 53.7827 61.1156 55.0057 61.5759 55.0057C62.0799 55.0057 63.3399 54.2632 63.3399 54.2632C63.3399 54.2632 63.9548 54.9486 64.7948 54.8949C65.6348 54.8411 66.9486 54.1456 67.1871 54.0145C67.4257 53.8869 69.4148 52.2673 69.4148 52.2673L67.7751 50.2715Z" fill="#F7A486"/>
<path d="M63.1854 46.69C62.3286 46.606 61.0417 47.11 60.6486 47.278C60.2555 47.446 59.8355 48.5952 59.7515 48.958C59.6675 49.3209 59.6104 51.5419 59.7515 51.72C59.8926 51.898 60.4806 53.1614 60.6755 53.7897C60.8704 54.418 61.2635 54.492 61.9926 53.9644C62.7217 53.4369 62.7755 52.5969 62.8326 51.8409C62.8897 51.0849 63.1854 46.69 63.1854 46.69Z" fill="#FFD9BA"/>
<path opacity="0.7" d="M61.9354 46.8371C61.7137 47.6771 61.3642 49.1085 61.4281 49.5184C61.5054 50.0291 61.8313 52.4483 61.9186 54.0141C61.9455 53.9973 61.969 53.9839 61.9959 53.9637C62.725 53.4362 62.7788 52.5962 62.8359 51.8402C62.893 51.0842 63.1887 46.6893 63.1887 46.6893C62.8158 46.6523 62.3622 46.7263 61.9354 46.8371Z" fill="#F7A486"/>
<path d="M66.7269 45.2614C66.7269 45.2614 66.1389 44.5827 65.5778 44.5591C65.0167 44.5356 63.0578 45.2916 62.8898 45.5134C62.7218 45.7351 62.1338 48.5105 62.1069 49.0985C62.08 49.6865 62.4429 51.7865 62.4429 52.6702C62.4429 53.5539 62.6109 54.0847 63.424 53.9436C64.2371 53.8025 64.9931 53.1674 65.4131 51.7226C65.8331 50.2778 65.9742 48.0434 65.9742 48.0434L66.7269 45.2614Z" fill="#FFD9BA"/>
<path opacity="0.7" d="M65.4099 51.719C65.8299 50.2742 65.971 48.0398 65.971 48.0398L66.727 45.2611C66.727 45.2611 66.1995 44.6563 65.6652 44.5723C65.3494 45.2644 64.674 46.7932 64.5598 47.4854C64.4086 48.3926 64.459 50.6942 64.4153 51.8971C64.3884 52.6531 63.6996 53.4595 63.1855 53.9601C63.2595 53.9601 63.3334 53.9567 63.4207 53.9399C64.2339 53.7988 64.9899 53.1638 65.4099 51.719Z" fill="#F7A486"/>
<path d="M71.011 44.5564C71.011 44.5564 69.7274 43.6357 69.4183 43.6357C69.1092 43.6357 66.9521 43.9852 66.5052 44.217C66.0583 44.4489 64.9932 47.4023 64.7983 48.0373C64.6034 48.6757 64.6572 50.8127 64.6034 52.1097C64.5463 53.4066 64.4253 54.3877 65.3124 54.2466C66.1994 54.1055 67.483 53.5813 67.7652 51.7165C68.0474 49.8517 68.7765 47.4829 68.7765 47.4829L71.011 44.5564Z" fill="#FFD9BA"/>
<path opacity="0.7" d="M69.5022 43.6523C69.015 44.3949 67.5702 46.5923 67.3653 46.9283C67.12 47.3315 66.8613 49.66 66.6429 50.4127C66.4581 51.0477 65.4333 52.2607 64.5765 52.5832C64.5294 53.6349 64.5328 54.3707 65.309 54.2464C66.196 54.1053 67.4795 53.5811 67.7618 51.7163C68.044 49.8515 68.7731 47.4827 68.7731 47.4827L71.0142 44.5562C71.0109 44.5562 69.9155 43.7699 69.5022 43.6523Z" fill="#F7A486"/>
<path d="M73.9004 45.3931C73.7962 44.5699 73.3594 44.2373 72.9058 43.7769C72.4522 43.3166 71.1721 43.1049 70.8965 43.1889C70.621 43.2729 67.8826 46.2969 67.7717 46.7371C67.6609 47.1773 67.6609 50.3189 67.4525 51.3C67.2409 52.2811 67.1165 53.2253 68.0842 53.0371C69.0519 52.8489 70.1842 51.7805 70.6042 50.0971C71.0242 48.4171 71.1284 48.1147 71.1284 48.1147L73.9004 45.3931Z" fill="#FFD9BA"/>
<path d="M68.0843 53.0367C69.052 52.8485 70.1843 51.78 70.6043 50.0967C71.0243 48.4167 71.1285 48.1143 71.1285 48.1143L73.9005 45.3927C73.8064 44.6434 73.4368 44.3007 73.0302 43.8975C72.412 44.5896 71.8777 45.7051 71.8777 45.7051L67.6542 48.7459C67.6139 49.7271 67.5601 50.7955 67.4526 51.2962C67.2443 52.2807 67.12 53.2248 68.0843 53.0367Z" fill="#F7A486"/>
<path d="M83.0834 42.2814C83.7454 41.8211 83.91 40.9105 83.4463 40.2486C82.986 39.5867 82.0754 39.422 81.4135 39.8857L80.335 40.6383L82.0015 43.0374L83.0834 42.2814Z" fill="#FF9EB1"/>
<path d="M69.0623 52.1227L67.3655 49.68L80.3183 40.6113L82.0184 43.0507L69.0623 52.1227Z" fill="#E0748A"/>
<path d="M68.6524 51.5318L67.7754 50.2718L80.7282 41.2031L81.6085 42.4631L68.6524 51.5318Z" fill="#FF9EB1"/>
<path d="M80.3804 40.4129L78.7229 41.5664L80.5673 44.2167L82.2248 43.0633L80.3804 40.4129Z" fill="#4A4A4A"/>
<path d="M67.1872 52.5212L69.0621 52.1214C69.3477 51.7518 69.0386 51.2646 69.0386 51.2646C69.1797 50.8849 68.6085 49.971 68.1616 50.0012C68.0373 49.7761 67.7114 49.5644 67.3653 49.682L66.3372 51.3015C66.5488 51.4359 66.7336 51.6107 66.8848 51.8257C67.036 52.0407 67.1368 52.2793 67.1872 52.5212Z" fill="#FFD9BA"/>
<path d="M67.1873 52.5205C67.1369 52.2785 67.0361 52.04 66.8849 51.8249C66.7337 51.6065 66.5456 51.4318 66.3372 51.3008L65.3091 52.9237L67.1873 52.5205Z" fill="#4A4A4A"/>
<path d="M75.9601 51.5303C76.5381 50.566 76.5078 48.8994 76.0878 48.2879C75.6678 47.6764 74.7001 45.6839 74.4481 44.9078C74.1961 44.1316 72.7513 44.6793 72.4557 46.1174C72.16 47.5555 72.4859 48.5769 72.7849 49.5143L69.4182 51.8731L71.572 56.8929C71.572 56.8929 74.5725 53.8487 75.9601 51.5303Z" fill="#FFD9BA"/>
<path d="M66.5251 92.9889C66.5251 92.9889 67.9027 91.0502 70.3051 90.5697C70.3051 90.5697 76.8067 93.261 81.2016 96.4194C85.9795 93.2711 97.4607 89.2727 101.557 89.1182L103.058 97.6761L84.6087 103.109L69.6903 102.027L66.5251 92.9889Z" fill="white"/>
<path d="M103.65 91.5241C104.265 91.4334 104.954 91.4031 105.034 92.2801C105.115 93.1571 109.496 121.455 109.597 122.046C109.701 122.634 109.469 123.152 108.777 123.32C108.085 123.488 97.9614 124.55 90.3342 128.024L86.4702 127.742C86.4702 127.742 74.5792 122.413 74.0113 122.228C73.4435 122.04 73.4065 121.892 73.1646 121.196C72.9227 120.501 66.0347 93.7417 65.8868 93.0999C65.739 92.4582 65.8566 92.1591 66.7168 92.3507C67.5769 92.5422 79.552 97.3739 79.552 97.3739L83.3252 97.5385C88.9465 94.9681 95.9353 92.6598 103.65 91.5241Z" fill="#4A4A4A"/>
<path opacity="0.5" d="M66.7168 92.3502C65.8566 92.1587 65.739 92.4577 65.8868 93.0995C66.0347 93.7412 72.9227 120.497 73.1646 121.196C73.4065 121.891 73.4435 122.043 74.0113 122.227C74.5792 122.415 86.4702 127.741 86.4702 127.741L79.552 97.3734C79.552 97.3734 67.5769 92.5417 66.7168 92.3502Z" fill="#4A4A4A"/>
<path d="M124.378 113.667C124.378 113.667 125.786 117.918 124.606 123.156L123.988 123.068C123.988 123.068 124.435 124.359 125.08 124.809C125.725 125.256 132.445 126.321 132.445 126.321C132.445 126.321 133.732 127.329 135.358 127.44C136.981 127.551 139.501 126.993 139.501 126.993C139.501 126.993 145.942 125.817 148.348 124.641C150.757 123.465 151.036 122.625 151.036 120.834C151.036 119.043 149.692 116.466 149.692 115.179C149.02 109.971 147.283 103.755 146.275 101.346C145.267 98.9369 144.091 96.138 144.091 95.5769C143.251 91.77 140.116 82.026 138.715 80.01C137.314 77.994 137.099 76.3946 136.423 76.6366C135.748 76.8751 132.724 83.2591 131.266 90.762C129.811 98.2649 130.315 102.579 130.033 105.153C129.754 107.73 128.967 112.377 128.967 112.377C128.967 112.377 125.033 112.847 124.489 112.847C123.944 112.847 123.712 113.684 123.712 113.684L124.378 113.667Z" fill="#AA9B1F"/>
<path d="M36.07 64.3662L20.7249 68.4822C21.622 74.8729 23.638 81.0117 26.5041 86.3641C29.0778 91.1757 32.337 95.3521 36.0801 98.5105L51.4252 94.3945C47.6788 91.2361 44.4229 87.0597 41.8492 82.2481C38.9831 76.8957 36.9671 70.7536 36.07 64.3662Z" fill="white"/>
<path d="M22.3176 71.3066C26.6823 70.1339 31.0469 68.9646 35.4149 67.792C35.4283 67.8626 35.4451 67.9365 35.4586 68.007C31.0939 69.1797 26.7293 70.349 22.3613 71.5216C22.3445 71.451 22.3311 71.3805 22.3176 71.3066Z" fill="#808080"/>
<path d="M23.2012 75.0561C27.5658 73.8868 31.9305 72.7142 36.2985 71.5449C36.3186 71.6155 36.3354 71.686 36.3556 71.7566C31.9909 72.9259 27.6263 74.0985 23.2583 75.2678C23.2415 75.1972 23.2213 75.1267 23.2012 75.0561Z" fill="#808080"/>
<path d="M23.759 76.9648C28.6579 75.6577 36.611 73.5241 36.8563 73.4502C36.8765 73.5174 36.9 73.588 36.9202 73.6552C32.5555 74.8278 28.1909 75.9971 23.8229 77.1697C23.8027 77.1025 23.7826 77.032 23.759 76.9648Z" fill="#808080"/>
<path d="M24.384 78.8407C28.7487 77.6681 33.1133 76.4988 37.4813 75.3262C37.5048 75.3934 37.5284 75.4606 37.5519 75.5278C33.1872 76.7004 28.8226 77.8697 24.4546 79.0423C24.4311 78.9751 24.4076 78.9079 24.384 78.8407Z" fill="#808080"/>
<path d="M25.0693 80.6747C29.434 79.5054 33.7986 78.3328 38.1666 77.1602C38.1935 77.2274 38.2204 77.2912 38.2439 77.3584C33.8793 78.531 29.5146 79.7003 25.1466 80.873C25.1231 80.8058 25.0962 80.7419 25.0693 80.6747Z" fill="#808080"/>
<path d="M25.8154 82.4677C30.1801 81.295 34.5447 80.1258 38.9127 78.9531C38.9396 79.017 38.9698 79.0842 39.0001 79.148C34.6354 80.3173 30.2708 81.4899 25.9028 82.6626C25.8725 82.5987 25.8457 82.5349 25.8154 82.4677Z" fill="#808080"/>
<path d="M26.625 84.2255C30.9896 83.0529 35.3543 81.8836 39.7223 80.7109C39.7525 80.7748 39.7828 80.8386 39.813 80.8991C35.4484 82.0717 31.0837 83.241 26.7157 84.4137C26.6855 84.3498 26.6552 84.286 26.625 84.2255Z" fill="#808080"/>
<path d="M27.4885 85.9286C31.8532 84.7593 36.2178 83.5867 40.5858 82.4141C40.6127 82.4645 40.6396 82.5115 40.6631 82.5619C40.6698 82.5753 40.6765 82.5854 40.6832 82.5989C36.3186 83.7681 31.954 84.9408 27.586 86.1134C27.5792 86.1 27.5725 86.0899 27.5658 86.0765C27.5389 86.0294 27.5154 85.979 27.4885 85.9286Z" fill="#808080"/>
<path d="M28.406 87.5819C32.7706 86.4093 37.1353 85.24 41.5033 84.0674C41.5369 84.1245 41.5705 84.185 41.6074 84.2455C37.2428 85.4147 32.8782 86.5874 28.5102 87.76C28.4732 87.6995 28.4396 87.6424 28.406 87.5819Z" fill="#808080"/>
<path d="M29.377 89.1825C33.7416 88.0133 38.1062 86.8406 42.4709 85.668C42.5078 85.7251 42.5448 85.7822 42.5818 85.8393C38.2171 87.012 33.8525 88.1812 29.4845 89.3539C29.4509 89.2968 29.4139 89.2397 29.377 89.1825Z" fill="#808080"/>
<path d="M30.4019 90.7206C34.7665 89.5513 39.1311 88.3787 43.4991 87.2061C43.5361 87.2598 43.5764 87.3169 43.6134 87.3707C39.2487 88.5433 34.8841 89.7126 30.5161 90.8852C30.4791 90.8315 30.4388 90.7777 30.4019 90.7206Z" fill="#808080"/>
<path d="M31.4736 92.203C35.8383 91.0304 40.2029 89.8611 44.5709 88.6885C44.6112 88.7422 44.6516 88.7926 44.6919 88.8464L31.598 92.361C31.5543 92.3072 31.514 92.2534 31.4736 92.203Z" fill="#808080"/>
<path d="M32.5959 93.6142C36.9606 92.4415 41.3252 91.2722 45.6899 90.0996C45.7335 90.15 45.7739 90.2004 45.8142 90.2508C41.4495 91.4201 37.0849 92.5927 32.7169 93.7654C32.6799 93.715 32.6363 93.6646 32.5959 93.6142Z" fill="#808080"/>
<path d="M33.7651 94.9575C38.664 93.6504 46.6171 91.5168 46.8624 91.4463C46.9061 91.4933 46.9498 91.5404 46.9935 91.5874C42.6288 92.7567 38.2642 93.9293 33.8962 95.102C33.8491 95.0549 33.8055 95.0045 33.7651 94.9575Z" fill="#808080"/>
<path d="M45.2898 18.6517L66.6258 12.5029C69.512 19.2801 72.9258 25.0122 76.5176 29.266C79.7432 33.0897 83.1133 35.7205 86.3692 36.8461L65.0332 42.9949C61.774 41.8693 58.4072 39.2384 55.1816 35.4148C51.5932 31.161 48.1794 25.4289 45.2898 18.6517Z" fill="white"/>
<path d="M66.6055 16.1689C60.5374 17.9195 54.4659 19.6667 48.3977 21.4173C48.4313 21.4912 48.4683 21.5617 48.5019 21.6357C54.57 19.8851 60.6382 18.1379 66.7097 16.3873C66.6727 16.3134 66.6391 16.2429 66.6055 16.1689Z" fill="#808080"/>
<path d="M68.4971 19.9062C62.429 21.6568 56.3575 23.404 50.2893 25.1546C50.3263 25.2218 50.3632 25.2923 50.4002 25.3595C56.4683 23.609 62.5399 21.8618 68.608 20.1112C68.5711 20.0407 68.5341 19.9734 68.4971 19.9062Z" fill="#808080"/>
<path d="M69.522 21.7305C63.4539 23.481 57.3824 25.2282 51.3142 26.9788C51.3512 27.0426 51.3881 27.1098 51.4285 27.1737C57.4966 25.4231 63.5681 23.6759 69.6363 21.9253C69.596 21.8615 69.559 21.7943 69.522 21.7305Z" fill="#808080"/>
<path d="M70.567 23.4736C64.4988 25.2242 58.4273 26.9714 52.3591 28.722C52.3961 28.7824 52.4364 28.8463 52.4734 28.9068C58.5415 27.1562 64.6131 25.409 70.6812 23.6584C70.6443 23.598 70.6073 23.5375 70.567 23.4736Z" fill="#808080"/>
<path d="M71.6356 25.1328C65.5674 26.8834 59.4959 28.6306 53.4277 30.3811C53.4681 30.4383 53.505 30.4987 53.5453 30.5559C59.6135 28.8053 65.6817 27.0581 71.7532 25.3075C71.7129 25.2504 71.6725 25.1933 71.6356 25.1328Z" fill="#808080"/>
<path d="M72.7208 26.7061C66.6526 28.4566 60.5811 30.2038 54.5129 31.9544C54.5533 32.0115 54.5936 32.0653 54.6339 32.1224C60.7021 30.3718 66.7702 28.6246 72.8417 26.8741C72.8014 26.8169 72.7611 26.7632 72.7208 26.7061Z" fill="#808080"/>
<path d="M73.8228 28.1885C67.7547 29.939 61.6832 31.6862 55.615 33.4368C55.6553 33.4906 55.6956 33.541 55.736 33.5914C61.8041 31.8408 67.8723 30.0936 73.9438 28.343C73.9035 28.2926 73.8632 28.2422 73.8228 28.1885Z" fill="#808080"/>
<path d="M74.9417 29.5742C68.8736 31.3248 62.8054 33.072 56.7339 34.8225C56.7675 34.8629 56.8011 34.8998 56.8313 34.9401C56.838 34.9502 56.8481 34.9569 56.8548 34.967C62.923 33.2165 68.9945 31.4693 75.0627 29.7187C75.056 29.7086 75.0459 29.6985 75.0392 29.6918C75.0056 29.6549 74.9753 29.6145 74.9417 29.5742Z" fill="#808080"/>
<path d="M76.0672 30.8662C69.9991 32.6168 63.9275 34.364 57.8594 36.1145C57.8997 36.1582 57.9434 36.2053 57.9837 36.2489C64.0519 34.4984 70.1234 32.7512 76.1915 31.0006C76.1512 30.9569 76.1075 30.9133 76.0672 30.8662Z" fill="#808080"/>
<path d="M77.203 32.0586C71.1348 33.8092 65.0666 35.5564 58.9951 37.3069C59.0354 37.3472 59.0791 37.3909 59.1194 37.4312C65.1876 35.6807 71.2591 33.9335 77.3273 32.1829C77.287 32.1426 77.2466 32.0989 77.203 32.0586Z" fill="#808080"/>
<path d="M78.3487 33.1475C72.2806 34.898 66.209 36.6452 60.1409 38.3958C60.1812 38.4327 60.2249 38.4697 60.2652 38.51C66.3333 36.7595 72.4015 35.0123 78.473 33.2617C78.4293 33.2247 78.389 33.1878 78.3487 33.1475Z" fill="#808080"/>
<path d="M79.4945 34.1348C73.4263 35.8853 67.3548 37.6325 61.2866 39.3831C61.3303 39.4167 61.3706 39.4503 61.4109 39.4839C67.4791 37.7333 73.5473 35.9861 79.6188 34.2356C79.5785 34.202 79.5381 34.1684 79.4945 34.1348Z" fill="#808080"/>
<path d="M80.647 35.0117L62.4392 40.26C62.4829 40.2903 62.5232 40.3205 62.5635 40.3508C68.6317 38.6002 74.6999 36.853 80.7714 35.1024C80.7311 35.0688 80.6874 35.0386 80.647 35.0117Z" fill="#808080"/>
<path d="M81.7962 35.7773C75.7281 37.5279 69.6565 39.2751 63.5884 41.0257C63.6321 41.0525 63.6724 41.0761 63.7127 41.1029L81.9205 35.8546C81.8802 35.8277 81.8399 35.8009 81.7962 35.7773Z" fill="#808080"/>
<path d="M163.908 79.8343L142.572 73.6855C139.686 80.4627 136.272 86.1948 132.68 90.4486C129.455 94.2723 126.084 96.9031 122.829 98.0287L144.165 104.178C147.424 103.052 150.791 100.421 154.016 96.5974C157.608 92.3436 161.022 86.6115 163.908 79.8343Z" fill="white"/>
<path d="M142.596 77.3516C148.664 79.1021 154.735 80.8493 160.803 82.5999C160.77 82.6738 160.733 82.7477 160.699 82.8183C154.631 81.0677 148.563 79.3205 142.491 77.57C142.525 77.496 142.559 77.4255 142.596 77.3516Z" fill="#808080"/>
<path d="M140.7 81.0889C146.769 82.8394 152.84 84.5866 158.908 86.3372C158.871 86.4044 158.834 86.475 158.797 86.5422C152.729 84.7916 146.658 83.0444 140.59 81.2938C140.627 81.2233 140.664 81.1561 140.7 81.0889Z" fill="#808080"/>
<path d="M139.679 82.9121C145.747 84.6627 151.819 86.4099 157.887 88.1604C157.85 88.2243 157.813 88.2915 157.773 88.3553C151.705 86.6047 145.636 84.8575 139.565 83.107C139.602 83.0431 139.642 82.9759 139.679 82.9121Z" fill="#808080"/>
<path d="M138.631 84.6562C144.699 86.4068 150.771 88.154 156.839 89.9046C156.802 89.965 156.761 90.0289 156.724 90.0894C150.656 88.3388 144.585 86.5916 138.517 84.841C138.554 84.7806 138.594 84.7201 138.631 84.6562Z" fill="#808080"/>
<path d="M137.566 86.3154C143.634 88.066 149.705 89.8132 155.773 91.5638C155.733 91.6242 155.696 91.6814 155.656 91.7385C149.588 89.9879 143.52 88.2407 137.448 86.4902C137.488 86.433 137.525 86.3759 137.566 86.3154Z" fill="#808080"/>
<path d="M136.48 87.8877C142.548 89.6383 148.62 91.3855 154.688 93.136C154.648 93.1931 154.608 93.2469 154.567 93.304C148.499 91.5535 142.431 89.8063 136.359 88.0557C136.4 87.9986 136.44 87.9415 136.48 87.8877Z" fill="#808080"/>
<path d="M135.375 89.3711C141.443 91.1217 147.515 92.8689 153.583 94.6194C153.542 94.6698 153.502 94.7236 153.462 94.774C147.394 93.0234 141.325 91.2762 135.254 89.5257C135.294 89.4753 135.335 89.4215 135.375 89.3711Z" fill="#808080"/>
<path d="M134.259 90.7568C140.328 92.5074 146.396 94.2546 152.467 96.0052C152.434 96.0455 152.4 96.0824 152.37 96.1228C152.363 96.1328 152.353 96.1396 152.346 96.1496C146.278 94.3991 140.207 92.6519 134.138 90.9013C134.145 90.8912 134.155 90.8845 134.162 90.8744C134.192 90.8375 134.226 90.7972 134.259 90.7568Z" fill="#808080"/>
<path d="M133.13 92.0479C139.199 93.7984 145.27 95.5456 151.338 97.2962C151.298 97.3398 151.254 97.3869 151.214 97.4306C145.146 95.68 139.074 93.9328 133.006 92.1822C133.05 92.1386 133.09 92.0949 133.13 92.0479Z" fill="#808080"/>
<path d="M131.995 93.2412C138.063 94.9918 144.131 96.739 150.203 98.4895C150.162 98.5298 150.119 98.5735 150.078 98.6138C144.01 96.8633 137.939 95.1161 131.87 93.3655C131.911 93.3252 131.954 93.2815 131.995 93.2412Z" fill="#808080"/>
<path d="M130.852 94.3301C136.921 96.0806 142.992 97.8278 149.06 99.5784C149.02 99.6154 148.976 99.6523 148.936 99.6926C142.864 97.9421 136.796 96.1915 130.728 94.4443C130.768 94.4074 130.809 94.367 130.852 94.3301Z" fill="#808080"/>
<path d="M129.703 95.3145C135.771 97.065 141.843 98.8122 147.911 100.563C147.867 100.596 147.827 100.63 147.787 100.664C141.719 98.913 135.65 97.1658 129.579 95.4152C129.619 95.385 129.66 95.3514 129.703 95.3145Z" fill="#808080"/>
<path opacity="0.6" d="M152.706 61.7522C156.6 60.7408 157.336 57.7168 154.345 55.0288C154.345 55.0288 149.275 50.4827 147.592 48.9606C146.201 47.7006 145.099 45.4629 144.726 44.0349C144.356 42.6069 142.763 36.4581 142.609 35.8667C142.458 35.2787 142.054 34.8822 141.497 35.0301L137.142 36.159C136.581 36.3035 136.423 36.8411 136.578 37.4325C136.732 38.0205 138.325 44.1726 138.694 45.6006C139.064 47.0286 139.185 49.5184 138.584 51.2992C137.855 53.4462 135.627 59.884 135.627 59.884C134.316 63.6875 136.43 65.9723 140.324 64.9643L152.706 61.7522Z" fill="white"/>
<path d="M140.324 64.9603L152.706 61.7515C156.6 60.7401 157.336 57.7161 154.345 55.0281C154.345 55.0281 152.242 53.1431 150.293 51.3926C147.548 53.0558 144.366 53.7379 142.125 53.3212C140.909 53.0961 139.444 52.9147 137.979 53.0491C137.035 55.7975 135.624 59.8766 135.624 59.8766C134.317 63.6801 136.427 65.9683 140.324 64.9603Z" fill="#DAC727"/>
<path opacity="0.6" d="M138.258 60.2158C138.13 60.2494 137.992 60.246 137.858 60.199C137.505 60.0713 137.317 59.6815 137.445 59.3287C137.572 58.9759 137.972 58.7575 138.325 58.8819C138.678 59.0062 138.879 59.3623 138.755 59.7185C138.755 59.7185 138.731 59.7857 138.731 59.7891C138.651 60.0075 138.469 60.162 138.258 60.2158Z" fill="white"/>
<path opacity="0.6" d="M139.051 57.9957C138.926 58.0293 138.789 58.026 138.658 57.9789C138.301 57.8546 138.113 57.4682 138.234 57.1121L139.047 54.7433C139.172 54.3871 139.558 54.1956 139.914 54.3165C140.27 54.4375 140.462 54.8239 140.341 55.1834L139.524 57.5556C139.447 57.7807 139.266 57.9386 139.051 57.9957Z" fill="white"/>
<path opacity="0.6" d="M19.5792 48.9747C18.6048 50.9302 19.4011 53.3091 21.3567 54.2835C23.3122 55.2579 25.6877 54.4649 26.6655 52.5061L35.6165 34.5401L28.5336 31.0088L19.5792 48.9747Z" fill="url(#paint0_linear_3394_14349)"/>
<path d="M21.3567 54.2837C23.3122 55.2581 25.6877 54.4652 26.6655 52.5063L31.2653 43.273C29.2829 41.388 27.4013 39.3116 24.6192 38.8613L19.5792 48.9749C18.6048 50.9338 19.4011 53.3093 21.3567 54.2837Z" fill="#FF9EB1"/>
<path opacity="0.6" d="M36.5337 35.2277C36.1943 35.9098 35.3644 36.1853 34.6857 35.8459L28.0564 32.5431C27.3743 32.2037 27.0988 31.3771 27.4382 30.6951C27.7775 30.013 28.6041 29.7375 29.2862 30.0768L35.9154 33.3797C36.5942 33.7191 36.873 34.5456 36.5337 35.2277Z" fill="white"/>
<path opacity="0.6" d="M22.7949 47.9424C22.6605 47.9626 22.5194 47.939 22.3883 47.8752C22.0389 47.7005 21.8978 47.2805 22.0725 46.931L24.6597 41.7365C24.8344 41.387 25.2544 41.2459 25.6039 41.4206C25.9533 41.5954 26.0944 42.0154 25.9197 42.3648L23.3325 47.5594C23.2216 47.7778 23.02 47.9122 22.7949 47.9424Z" fill="white"/>
<path opacity="0.6" d="M26.548 40.4127C26.4136 40.4328 26.2724 40.4093 26.1414 40.3455C25.7953 40.1741 25.6508 39.7507 25.8256 39.4013L25.97 39.1123C26.1448 38.7663 26.5681 38.6251 26.9142 38.7965C27.2603 38.9679 27.4048 39.3912 27.23 39.7407L27.0856 40.0296C26.9747 40.2447 26.7697 40.3824 26.548 40.4127Z" fill="white"/>
<path d="M107.866 2.0078C108.663 1.64828 109.741 1.60796 111.102 1.88684C113.733 2.42444 114.862 3.61388 114.486 5.44844C114.331 6.19772 113.898 6.75548 113.179 7.12172C112.46 7.4846 111.505 7.64924 110.309 7.60892L110.302 7.64252C111.714 8.039 112.702 8.59004 113.266 9.29564C113.83 10.0012 114.022 10.8043 113.837 11.7048C113.609 12.8136 112.984 13.5998 111.956 14.0635C110.927 14.5272 109.617 14.5944 108.024 14.2684C107.399 14.1408 106.835 13.9526 106.328 13.704C105.82 13.4553 105.397 13.0824 105.058 12.5884C104.718 12.0912 104.611 11.5603 104.725 10.9958C104.839 10.4313 105.068 10.018 105.4 9.76268C105.736 9.50732 106.139 9.42668 106.613 9.52412C107.087 9.62156 107.436 9.82316 107.662 10.1256C107.887 10.4313 107.967 10.7539 107.897 11.0932C107.826 11.4326 107.722 11.7148 107.578 11.94L107.04 11.8291C106.932 12.0004 106.858 12.1819 106.818 12.3801C106.65 13.2 107.053 13.7107 108.021 13.9089C108.703 14.0467 109.221 13.882 109.573 13.415C109.926 12.9446 110.205 12.2222 110.407 11.2411C110.608 10.26 110.635 9.52412 110.491 9.0302C110.346 8.53628 110.064 8.12972 109.651 7.8038C109.217 7.81052 108.7 7.78364 108.098 7.7198L108.125 7.32668C109.163 7.43084 109.879 7.32332 110.276 7.00748C110.672 6.69164 110.968 6.04652 111.169 5.06876C111.368 4.09436 111.418 3.37532 111.314 2.915C111.21 2.45468 110.934 2.17916 110.481 2.08508C110.03 1.99436 109.681 2.06156 109.436 2.29676C109.19 2.5286 109.042 2.76716 108.992 3.00908C108.942 3.251 108.935 3.47276 108.965 3.671L109.469 3.77516C109.513 4.03724 109.499 4.33628 109.429 4.679C109.358 5.01836 109.153 5.2838 108.814 5.47532C108.475 5.66348 108.068 5.71052 107.594 5.61308C107.121 5.51564 106.785 5.28716 106.59 4.92764C106.391 4.56812 106.341 4.1582 106.435 3.69452C106.593 2.92844 107.07 2.36732 107.866 2.0078Z" fill="#3E5691"/>
<path d="M35.7004 54.2258C35.7172 53.3758 36.1439 52.4081 36.9805 51.3262C37.8172 50.2442 38.6605 49.5689 39.514 49.2934C40.364 49.0212 41.1906 49.1959 41.9937 49.8142C42.2557 50.0158 42.4708 50.2207 42.6455 50.429C42.8202 50.6374 42.958 50.9129 43.0588 51.2522C43.1596 51.5916 43.2402 51.9074 43.3007 52.1998C43.3578 52.4921 43.388 52.9356 43.388 53.5303C43.4015 54.4375 43.3948 55.3682 43.3612 56.3258C43.3276 57.2834 43.3108 57.8412 43.304 58.0025L43.2604 59.3297L45.8543 55.973C46.3516 55.3313 46.5666 54.7634 46.4927 54.2796C46.4221 53.7924 46.1332 53.2615 45.6225 52.6903L45.8072 52.4518L49.5738 55.5866L44.4901 62.1588L42.8672 60.9055L42.6589 58.4863C42.5245 56.85 42.2692 55.5631 41.8962 54.6324C41.5199 53.7017 40.9218 52.9188 40.0952 52.2804C39.2687 51.642 38.637 51.2959 38.1969 51.2388C37.7567 51.1817 37.3736 51.3631 37.0511 51.7831C36.7252 52.2031 36.6076 52.5794 36.6916 52.9121C36.7756 53.2447 36.9167 53.4866 37.1116 53.6412C37.3064 53.7924 37.5013 53.8966 37.6929 53.957L38.0188 53.537C38.2708 53.6143 38.5362 53.7588 38.8117 53.9705C39.0873 54.1822 39.2351 54.4846 39.2553 54.871C39.2754 55.2574 39.1376 55.6438 38.842 56.0268C38.5463 56.4098 38.1935 56.6081 37.7836 56.6282C37.3736 56.6484 36.9839 56.5106 36.6109 56.225C35.986 55.7446 35.6836 55.0759 35.7004 54.2258Z" fill="#B0C251"/>
<path d="M148.496 29.2745L150.555 25.8103L148.277 23.1526L144.491 24.6041L145.354 25.6121L145.099 25.8305L143.338 23.7775L143.593 23.5591L144.134 24.1908L156.291 19.7119L157.235 20.814L150.912 32.0969L151.439 32.7151L151.184 32.9335L147.424 28.542L147.679 28.3236L148.496 29.2745ZM153.277 21.2676L148.677 23.0182L150.76 25.4474L153.277 21.2676Z" fill="#4A4A4A"/>
<path d="M5.97458 82.5537L10.6786 84.9662C12.1368 85.7121 13.128 86.4715 13.6555 87.2376C14.1831 88.0036 14.2066 88.8537 13.7295 89.7878C12.9936 91.2259 11.6866 91.6425 9.8117 91.0377L9.7949 91.0679C11.7571 92.4052 12.3384 93.8568 11.5387 95.4192C10.9541 96.5616 10.1141 97.1428 9.01874 97.1563C7.92338 97.1697 6.5693 96.7631 4.9565 95.9366L0.326416 93.5644L0.480976 93.2654L1.50242 93.7896L6.84146 83.3769L5.82002 82.8527L5.97458 82.5537ZM9.90913 84.9494L7.4261 89.7945L7.83602 90.0062C8.38033 90.2851 8.84738 90.3153 9.23042 90.0936C9.61346 89.8752 9.98306 89.4216 10.3325 88.7395L10.7122 88.0003C11.1087 87.2241 11.2935 86.6327 11.2632 86.2262C11.233 85.8196 10.9507 85.4803 10.4165 85.2047L9.90913 84.9494ZM7.27154 90.0936L4.5701 95.362L5.3093 95.7417C5.88722 96.0374 6.39122 96.0441 6.82802 95.7652C7.26146 95.4864 7.6781 94.9588 8.07794 94.1827L8.50466 93.3494C8.86082 92.6572 8.98514 92.0659 8.87761 91.5753C8.77345 91.0848 8.35682 90.6513 7.63442 90.2817L7.27154 90.0936Z" fill="#FF9EB1"/>
<path d="M19.1694 17.4966C18.3294 17.8326 17.5734 17.846 16.898 17.5402C16.2227 17.2345 15.7287 16.6868 15.4129 15.9006C15.0971 15.1143 15.0937 14.355 15.3961 13.6258C15.6985 12.8967 16.2764 12.3625 17.1265 12.0198C17.9766 11.6804 18.7326 11.6434 19.3945 11.9156C20.0531 12.1844 20.5537 12.7455 20.8964 13.5956C21.2358 14.4457 21.2459 15.2252 20.92 15.9342C20.5907 16.6398 20.0094 17.1606 19.1694 17.4966ZM16.7603 13.2361C16.8174 13.5183 16.8846 13.7737 16.9652 14.0022C17.0425 14.2306 17.1836 14.5969 17.3852 15.1009C17.5868 15.6049 17.7347 15.961 17.8321 16.1694C17.9295 16.381 18.0505 16.5994 18.1983 16.8313C18.3462 17.0631 18.4974 17.2042 18.6452 17.2479C18.7931 17.295 18.9644 17.2782 19.156 17.2009C19.3475 17.1236 19.4819 17.0161 19.5558 16.875C19.6297 16.7338 19.6331 16.5222 19.5692 16.2366C19.4718 15.8031 19.2937 15.2689 19.0383 14.6338C18.783 13.9954 18.6049 13.5654 18.5007 13.3402C18.3966 13.1151 18.2723 12.8866 18.1278 12.6615C17.9799 12.4364 17.8355 12.2986 17.6943 12.2482C17.5499 12.2012 17.3819 12.2146 17.1903 12.2919C16.9988 12.3692 16.8644 12.4767 16.7871 12.6111C16.7132 12.7455 16.7031 12.9572 16.7603 13.2361ZM20.8662 23.763L23.1308 9.82567L23.7726 9.57031L21.5247 23.5009L20.8662 23.763ZM27.5526 21.2732C26.7126 21.6092 25.9532 21.6226 25.2812 21.3169C24.6059 21.0111 24.1119 20.4634 23.7961 19.6772C23.4803 18.891 23.4769 18.1316 23.7793 17.4025C24.0851 16.6734 24.6596 16.1391 25.5131 15.7964C26.3631 15.457 27.1191 15.4201 27.7811 15.6889C28.4396 15.9577 28.9403 16.5188 29.283 17.3689C29.6223 18.219 29.6324 18.9985 29.3065 19.7074C28.9739 20.4164 28.3926 20.9372 27.5526 21.2732ZM25.1401 17.0161C25.1972 17.2983 25.2644 17.5537 25.3451 17.7822C25.4257 18.0106 25.5635 18.3769 25.7651 18.8809C25.9667 19.3849 26.1145 19.741 26.212 19.9494C26.3094 20.161 26.4303 20.3794 26.5782 20.6113C26.726 20.8431 26.8739 20.9842 27.0251 21.0279C27.1729 21.075 27.3443 21.0582 27.5358 20.9809C27.7273 20.9036 27.8617 20.7961 27.9356 20.655C28.0095 20.5138 28.0129 20.3022 27.9491 20.0166C27.855 19.5966 27.6803 19.0623 27.4215 18.4206C27.1662 17.7788 26.9847 17.3454 26.884 17.1202C26.7798 16.8951 26.6555 16.6666 26.511 16.4415C26.3631 16.213 26.2187 16.0786 26.0775 16.0282C25.9331 15.9812 25.7651 15.9946 25.5735 16.0719C25.382 16.1492 25.2476 16.2567 25.1703 16.3911C25.0931 16.5255 25.083 16.7338 25.1401 17.0161Z" fill="white"/>
<path d="M15.033 62.6862L7.19751 56.1376L7.67463 55.5664L15.5101 62.115L15.033 62.6862ZM11.9654 57.0448C11.9654 56.7323 12.0796 56.4366 12.3081 56.1611C12.5399 55.8856 12.8121 55.7277 13.1279 55.6874C13.4437 55.647 13.7529 55.7546 14.0519 56.0032C14.351 56.2518 14.5257 56.5307 14.5727 56.8365C14.6198 57.1422 14.519 57.4446 14.2636 57.7504C14.0082 58.0562 13.7226 58.2275 13.4068 58.2678C13.091 58.3082 12.7717 58.1906 12.4492 57.9218C12.13 57.6496 11.9654 57.3573 11.9654 57.0448ZM8.30295 61.4296C8.30295 61.1171 8.41719 60.8214 8.64567 60.5459C8.87751 60.2704 9.14967 60.1125 9.46551 60.0722C9.78135 60.0318 10.0905 60.1394 10.3895 60.388C10.6885 60.6366 10.8633 60.9155 10.9103 61.2213C10.9574 61.527 10.8565 61.8294 10.6012 62.1352C10.3458 62.441 10.0602 62.6123 9.74439 62.6493C9.42855 62.6896 9.10935 62.572 8.78679 62.3032C8.46423 62.0344 8.30295 61.7421 8.30295 61.4296Z" fill="#3E5691"/>
<path d="M82.1694 2.27279L79.095 3.34127L80.0492 6.08303L79.4982 6.27455L78.5439 3.53279L75.5838 4.56095L75.4158 4.08383L78.3759 3.05567L77.4889 0.502067L78.0399 0.310547L78.927 2.86415L82.0014 1.79567L82.1694 2.27279ZM83.6881 6.63743L77.1025 8.92559L76.9345 8.44511L83.5201 6.15695L83.6881 6.63743Z" fill="#FF9EB1"/>
</g>
<g clip-path="url(#clip2_3394_14349)">
<path d="M345 -31H165V149H345V-31Z" fill="#FEFBEA"/>
<path d="M233.627 15.1921L216.261 23.0293C215.573 23.3389 215.271 24.1453 215.58 24.8293L216.181 26.1613L217.344 25.6357C217.359 25.3873 217.503 25.1569 217.744 25.0489C218.086 24.8941 218.489 25.0453 218.644 25.3909C218.799 25.7329 218.647 26.1361 218.302 26.2909C218.061 26.3989 217.791 26.3557 217.596 26.2009L216.433 26.7265L217.909 29.9989L219.076 29.4733C219.087 29.2249 219.234 28.9945 219.475 28.8865C219.817 28.7317 220.221 28.8829 220.375 29.2285C220.53 29.5705 220.379 29.9737 220.033 30.1285C219.792 30.2365 219.522 30.1933 219.328 30.0385L218.165 30.5641L219.641 33.8365L220.804 33.3109C220.815 33.0625 220.962 32.8321 221.203 32.7241C221.545 32.5693 221.949 32.7205 222.103 33.0661C222.258 33.4081 222.103 33.8113 221.761 33.9661C221.52 34.0741 221.25 34.0309 221.056 33.8761L219.893 34.4017L221.369 37.6741L222.532 37.1485C222.543 36.9001 222.69 36.6697 222.931 36.5617C223.273 36.4069 223.677 36.5581 223.831 36.9037C223.986 37.2457 223.835 37.6489 223.489 37.8037C223.248 37.9117 222.978 37.8685 222.784 37.7137L221.621 38.2393L223.097 41.5117L224.26 40.9861C224.271 40.7377 224.418 40.5073 224.659 40.3993C225.001 40.2445 225.405 40.3957 225.559 40.7413C225.714 41.0833 225.563 41.4865 225.221 41.6413C224.98 41.7493 224.71 41.7061 224.515 41.5513L223.353 42.0769L224.829 45.3493L225.991 44.8237C226.006 44.5753 226.15 44.3449 226.391 44.2369C226.733 44.0821 227.136 44.2333 227.291 44.5789C227.446 44.9209 227.295 45.3241 226.949 45.4789C226.708 45.5869 226.438 45.5437 226.243 45.3889L225.081 45.9145L226.557 49.1869L227.719 48.6613C227.734 48.4129 227.878 48.1825 228.119 48.0745C228.461 47.9197 228.864 48.0745 229.019 48.4165C229.174 48.7585 229.023 49.1617 228.677 49.3165C228.436 49.4245 228.166 49.3813 227.971 49.2265L226.809 49.7521L227.41 51.0841C227.719 51.7681 228.526 52.0741 229.21 51.7645L246.576 43.9273C247.264 43.6177 247.566 42.8113 247.257 42.1273L235.413 15.8761C235.117 15.1885 234.315 14.8825 233.627 15.1921Z" fill="white"/>
<g opacity="0.4">
<path d="M219.623 24.8617L234.448 18.1729" stroke="#4A4A4A" stroke-width="0.4237" stroke-miterlimit="10"/>
<path d="M221.715 29.4984L236.539 22.8096" stroke="#4A4A4A" stroke-width="0.4237" stroke-miterlimit="10"/>
<path d="M223.806 34.1312L238.631 27.4424" stroke="#4A4A4A" stroke-width="0.4237" stroke-miterlimit="10"/>
<path d="M225.898 38.7689L240.723 32.0801" stroke="#4A4A4A" stroke-width="0.4237" stroke-miterlimit="10"/>
<path d="M227.99 43.4056L242.814 36.7168" stroke="#4A4A4A" stroke-width="0.4237" stroke-miterlimit="10"/>
<path d="M230.081 48.0384L244.906 41.3496" stroke="#4A4A4A" stroke-width="0.4237" stroke-miterlimit="10"/>
</g>
<path opacity="0.4" d="M220.422 23.4141L231.726 48.4737" stroke="#4A4A4A" stroke-width="0.4237" stroke-miterlimit="10"/>
<path d="M337.635 63.2911L325.65 48.4771C325.179 47.8939 324.318 47.8003 323.735 48.2755L322.601 49.1935L323.404 50.1871C323.645 50.1367 323.908 50.2195 324.073 50.4247C324.311 50.7163 324.264 51.1447 323.973 51.3823C323.681 51.6199 323.253 51.5731 323.015 51.2815C322.849 51.0763 322.821 50.8027 322.921 50.5759L322.119 49.5823L319.325 51.8395L320.128 52.8331C320.369 52.7827 320.632 52.8655 320.797 53.0707C321.035 53.3623 320.988 53.7907 320.697 54.0283C320.405 54.2659 319.977 54.2191 319.739 53.9275C319.573 53.7223 319.548 53.4487 319.645 53.2219L318.843 52.2283L316.049 54.4855L316.852 55.4791C317.093 55.4287 317.356 55.5115 317.521 55.7167C317.759 56.0083 317.712 56.4367 317.421 56.6743C317.129 56.9119 316.701 56.8651 316.463 56.5735C316.297 56.3683 316.269 56.0947 316.369 55.8679L315.567 54.8743L312.773 57.1315L313.576 58.1251C313.817 58.0747 314.08 58.1575 314.245 58.3627C314.483 58.6543 314.436 59.0827 314.145 59.3203C313.853 59.5579 313.425 59.5111 313.187 59.2195C313.021 59.0143 312.993 58.7407 313.093 58.5139L312.291 57.5203L309.501 59.7775L310.303 60.7711C310.545 60.7207 310.807 60.8035 310.973 61.0087C311.211 61.3003 311.164 61.7287 310.872 61.9663C310.581 62.2039 310.152 62.1571 309.915 61.8655C309.749 61.6603 309.72 61.3867 309.821 61.1599L309.018 60.1663L306.225 62.4271L307.027 63.4207C307.269 63.3703 307.531 63.4531 307.697 63.6583C307.935 63.9499 307.888 64.3783 307.596 64.6159C307.305 64.8535 306.876 64.8067 306.639 64.5151C306.473 64.3099 306.444 64.0363 306.545 63.8095L305.742 62.8159L302.949 65.0767L303.751 66.0703C303.993 66.0199 304.255 66.1027 304.421 66.3079C304.659 66.5995 304.612 67.0279 304.32 67.2655C304.029 67.5031 303.6 67.4563 303.363 67.1647C303.197 66.9595 303.172 66.6859 303.269 66.4591L302.466 65.4655L301.329 66.3835C300.745 66.8551 300.655 67.7119 301.127 68.2987L313.111 83.1091C313.583 83.6959 314.44 83.7859 315.027 83.3107L337.419 65.1955C338.016 64.7311 338.11 63.8743 337.635 63.2911Z" fill="white"/>
<g opacity="0.4">
<path d="M324.732 52.1963L334.96 64.8431" stroke="#4A4A4A" stroke-width="0.4237" stroke-miterlimit="10"/>
<path d="M320.779 55.3965L331.007 68.0397" stroke="#4A4A4A" stroke-width="0.4237" stroke-miterlimit="10"/>
<path d="M316.823 58.5938L327.054 71.2406" stroke="#4A4A4A" stroke-width="0.4237" stroke-miterlimit="10"/>
<path d="M312.87 61.7939L323.101 74.4371" stroke="#4A4A4A" stroke-width="0.4237" stroke-miterlimit="10"/>
<path d="M308.917 64.9902L319.145 77.637" stroke="#4A4A4A" stroke-width="0.4237" stroke-miterlimit="10"/>
<path d="M304.965 68.1914L315.192 80.8346" stroke="#4A4A4A" stroke-width="0.4237" stroke-miterlimit="10"/>
</g>
<path opacity="0.4" d="M326.334 52.6025L304.961 69.8933" stroke="#4A4A4A" stroke-width="0.4237" stroke-miterlimit="10"/>
<path d="M226.067 58.7768L210.803 70.178C210.202 70.628 210.076 71.4812 210.526 72.0824L211.4 73.2524L212.423 72.4892C212.38 72.2444 212.473 71.9888 212.686 71.8304C212.984 71.6036 213.413 71.6684 213.64 71.9672C213.866 72.2696 213.802 72.6944 213.503 72.9212C213.29 73.0796 213.017 73.0976 212.794 72.986L211.771 73.7492L213.92 76.6256L214.943 75.8624C214.9 75.6176 214.993 75.362 215.206 75.2C215.508 74.9768 215.933 75.038 216.16 75.3368C216.386 75.6392 216.322 76.064 216.023 76.2908C215.81 76.4492 215.537 76.4636 215.314 76.3556L214.291 77.1188L216.44 79.9952L217.463 79.232C217.42 78.9872 217.513 78.728 217.726 78.5696C218.028 78.3428 218.453 78.4076 218.68 78.7064C218.906 79.0088 218.842 79.4336 218.543 79.6604C218.33 79.8188 218.057 79.8332 217.834 79.7252L216.811 80.4884L218.96 83.3648L219.983 82.6016C219.943 82.3568 220.033 82.1012 220.246 81.9392C220.548 81.7124 220.973 81.7772 221.2 82.076C221.426 82.3784 221.362 82.8032 221.063 83.03C220.85 83.1884 220.577 83.2028 220.354 83.0948L219.331 83.858L221.48 86.7344L222.503 85.9712C222.46 85.7264 222.553 85.4672 222.766 85.3088C223.068 85.082 223.493 85.1468 223.72 85.4456C223.946 85.748 223.882 86.1728 223.583 86.3996C223.37 86.558 223.097 86.5724 222.874 86.4644L221.851 87.2276L224 90.1076L225.023 89.3408C224.983 89.096 225.073 88.8404 225.286 88.682C225.588 88.4552 226.013 88.52 226.24 88.8188C226.466 89.1212 226.402 89.546 226.103 89.7728C225.89 89.9312 225.617 89.9456 225.394 89.8376L224.371 90.6008L226.52 93.4772L227.543 92.7104C227.5 92.4656 227.593 92.21 227.806 92.0516C228.108 91.8248 228.533 91.8896 228.76 92.1884C228.986 92.4908 228.925 92.9156 228.623 93.1424C228.41 93.3008 228.137 93.3152 227.914 93.2072L226.891 93.9704L227.766 95.1404C228.216 95.7416 229.069 95.864 229.67 95.4176L244.934 84.0164C245.536 83.5664 245.658 82.7132 245.212 82.112L227.975 59.036C227.521 58.4492 226.668 58.3232 226.067 58.7768Z" fill="white"/>
<g opacity="0.4">
<path d="M214.482 71.2396L227.51 61.5088" stroke="#4A4A4A" stroke-width="0.4237" stroke-miterlimit="10"/>
<path d="M217.524 75.3145L230.556 65.5801" stroke="#4A4A4A" stroke-width="0.4237" stroke-miterlimit="10"/>
<path d="M220.57 79.3897L233.598 69.6553" stroke="#4A4A4A" stroke-width="0.4237" stroke-miterlimit="10"/>
<path d="M223.612 83.4613L236.64 73.7305" stroke="#4A4A4A" stroke-width="0.4237" stroke-miterlimit="10"/>
<path d="M226.654 87.5365L239.686 77.8057" stroke="#4A4A4A" stroke-width="0.4237" stroke-miterlimit="10"/>
<path d="M229.699 91.6123L242.728 81.8779" stroke="#4A4A4A" stroke-width="0.4237" stroke-miterlimit="10"/>
</g>
<path opacity="0.4" d="M214.947 69.6562L231.399 91.681" stroke="#4A4A4A" stroke-width="0.4237" stroke-miterlimit="10"/>
<path d="M205.028 59.9183L187.727 53.3699L194.207 31.5107L211.508 38.0591L205.028 59.9183Z" fill="#262626"/>
<path d="M204.744 61.2863L187.443 54.7379L185.347 50.4863L202.649 57.0347L204.744 61.2863Z" fill="#262626"/>
<path d="M212.304 36.3602L211.508 38.0594L208.402 42.617L208.164 41.9906L212.113 36.1982L212.304 36.3602Z" fill="#CF3232"/>
<path d="M199.672 55.4251L182.37 48.873L185.747 49.4778L203.052 56.0263L199.672 55.4251Z" fill="#4A4A4A"/>
<path opacity="0.5" d="M199.672 55.4251L182.37 48.873L185.747 49.4778L203.052 56.0263L199.672 55.4251Z" fill="#262626"/>
<path d="M198.88 56.3646L181.578 49.8126L181.6 49.4238L198.901 55.9758L198.88 56.3646Z" fill="#4A4A4A"/>
<path opacity="0.5" d="M198.88 56.3646L181.578 49.8126L181.6 49.4238L198.901 55.9758L198.88 56.3646Z" fill="#262626"/>
<path d="M212.491 36.5178L205.273 60.8682L204.744 61.2858L202.649 57.0342L198.88 56.3646L198.901 55.9758L199.672 55.425L203.052 56.0262L203.149 56.109L205.028 59.9178L211.508 38.0586L212.304 36.3594L212.491 36.5178Z" fill="#4A4A4A"/>
<path d="M208.164 41.9902L208.402 42.6166L199.672 55.4254L198.901 55.9762L198.927 55.5442L208.164 41.9902Z" fill="white"/>
<path opacity="0.3" d="M208.164 41.9902L208.402 42.6166L199.672 55.4254L198.901 55.9762L198.927 55.5442L208.164 41.9902Z" fill="#4A4A4A"/>
<path d="M198.901 55.9765L181.6 49.4245L181.625 48.9961L198.926 55.5445L198.901 55.9765Z" fill="white"/>
<path opacity="0.5" d="M198.901 55.9765L181.6 49.4245L181.625 48.9961L198.926 55.5445L198.901 55.9765Z" fill="#4A4A4A"/>
<path d="M208.164 41.9902L190.863 35.4418L194.812 29.6494L212.113 36.1978L208.164 41.9902Z" fill="#DAC727"/>
<path d="M198.927 55.5438L181.625 48.9954L190.863 35.4414L208.164 41.9898L198.927 55.5438Z" fill="white"/>
<path d="M192.432 38.2857L190.736 37.6449C190.618 37.6017 190.463 37.6485 190.391 37.7565C190.315 37.8681 190.355 37.9905 190.474 38.0337L192.169 38.6745C192.288 38.7177 192.439 38.6709 192.515 38.5593C192.583 38.4513 192.547 38.3289 192.432 38.2857Z" fill="#4A4A4A"/>
<path d="M195.787 39.5562L194.092 38.9154C193.973 38.8722 193.818 38.919 193.746 39.027C193.671 39.1386 193.71 39.261 193.829 39.3042L195.525 39.945C195.643 39.9882 195.795 39.9378 195.87 39.8298C195.942 39.7218 195.906 39.5994 195.787 39.5562Z" fill="#4A4A4A"/>
<path d="M199.143 40.8277L197.447 40.1869C197.328 40.1437 197.173 40.1905 197.101 40.2985C197.026 40.4101 197.065 40.5289 197.184 40.5757L198.88 41.2165C198.999 41.2597 199.15 41.2093 199.225 41.1013C199.297 40.9933 199.261 40.8709 199.143 40.8277Z" fill="#4A4A4A"/>
<path d="M202.498 42.0982L200.802 41.4574C200.683 41.4142 200.528 41.461 200.456 41.569C200.381 41.6806 200.42 41.7994 200.539 41.8462L202.235 42.487C202.354 42.5302 202.505 42.4798 202.58 42.3718C202.652 42.2638 202.616 42.1414 202.498 42.0982Z" fill="#4A4A4A"/>
<path d="M205.856 43.3658L204.161 42.725C204.042 42.6818 203.887 42.7286 203.815 42.8366C203.74 42.9482 203.779 43.0706 203.898 43.1138L205.594 43.7546C205.712 43.7978 205.864 43.751 205.939 43.6394C206.008 43.535 205.972 43.4126 205.856 43.3658Z" fill="#DAC727"/>
<path d="M190.47 39.5959C190.132 39.4663 189.689 39.6139 189.48 39.9199C189.271 40.2295 189.376 40.5823 189.714 40.7083C190.049 40.8343 190.492 40.6903 190.704 40.3807C190.913 40.0747 190.808 39.7219 190.47 39.5959Z" fill="#4A4A4A"/>
<path d="M193.829 40.8635C193.49 40.7339 193.048 40.8815 192.839 41.1875C192.63 41.4971 192.734 41.8499 193.073 41.9759C193.408 42.1019 193.854 41.9579 194.063 41.6483C194.268 41.3459 194.164 40.9931 193.829 40.8635Z" fill="#4A4A4A"/>
<path d="M197.184 42.134C196.846 42.0044 196.403 42.152 196.194 42.458C195.985 42.7676 196.09 43.1204 196.428 43.2464C196.763 43.3724 197.209 43.2284 197.418 42.9188C197.623 42.6164 197.519 42.2636 197.184 42.134Z" fill="#4A4A4A"/>
<path d="M200.539 43.4045C200.201 43.2749 199.758 43.4225 199.549 43.7285C199.34 44.0381 199.445 44.3909 199.783 44.5169C200.118 44.6429 200.561 44.4989 200.773 44.1893C200.978 43.8869 200.874 43.5341 200.539 43.4045Z" fill="#4A4A4A"/>
<path d="M203.894 44.676C203.556 44.5464 203.113 44.694 202.904 45C202.696 45.3096 202.8 45.6624 203.138 45.7884C203.473 45.9144 203.916 45.7704 204.128 45.4608C204.337 45.1548 204.233 44.802 203.894 44.676Z" fill="#DAC727"/>
<path d="M188.828 42.0041C188.49 41.8745 188.047 42.0221 187.835 42.3281C187.626 42.6377 187.73 42.9905 188.069 43.1165C188.404 43.2425 188.846 43.0985 189.059 42.7889C189.268 42.4829 189.167 42.1301 188.828 42.0041Z" fill="#4A4A4A"/>
<path d="M192.187 43.2756C191.849 43.146 191.406 43.2936 191.194 43.5996C190.985 43.9056 191.089 44.262 191.428 44.388C191.763 44.514 192.205 44.37 192.418 44.0604C192.627 43.7544 192.522 43.4016 192.187 43.2756Z" fill="#4A4A4A"/>
<path d="M195.543 44.5461C195.204 44.4165 194.761 44.5641 194.549 44.8701C194.34 45.1761 194.445 45.5325 194.783 45.6585C195.118 45.7845 195.564 45.6405 195.773 45.3309C195.982 45.0249 195.877 44.6721 195.543 44.5461Z" fill="#4A4A4A"/>
<path d="M198.898 45.8166C198.559 45.687 198.116 45.8346 197.904 46.1406C197.695 46.4502 197.8 46.803 198.138 46.929C198.473 47.055 198.919 46.911 199.128 46.6014C199.337 46.2954 199.232 45.9426 198.898 45.8166Z" fill="#4A4A4A"/>
<path d="M202.253 47.0842C201.914 46.9546 201.472 47.1022 201.259 47.4082C201.05 47.7178 201.155 48.0706 201.493 48.1966C201.828 48.3226 202.271 48.1786 202.483 47.869C202.692 47.5666 202.588 47.2138 202.253 47.0842Z" fill="#DAC727"/>
<path d="M187.187 44.4162C186.848 44.2866 186.406 44.4342 186.197 44.7402C185.988 45.0498 186.092 45.4026 186.431 45.5286C186.766 45.6546 187.212 45.5106 187.421 45.201C187.626 44.895 187.522 44.5422 187.187 44.4162Z" fill="#4A4A4A"/>
<path d="M190.542 45.6877C190.204 45.5581 189.761 45.7057 189.552 46.0117C189.343 46.3213 189.448 46.6741 189.786 46.8001C190.121 46.9261 190.567 46.7821 190.776 46.4725C190.981 46.1665 190.877 45.8137 190.542 45.6877Z" fill="#4A4A4A"/>
<path d="M193.897 46.9582C193.559 46.8286 193.116 46.9762 192.907 47.2822C192.699 47.5918 192.803 47.9446 193.141 48.0706C193.476 48.1966 193.923 48.0526 194.131 47.743C194.337 47.437 194.232 47.0842 193.897 46.9582Z" fill="#4A4A4A"/>
<path d="M197.252 48.2287C196.914 48.0991 196.471 48.2467 196.262 48.5527C196.054 48.8623 196.158 49.2151 196.496 49.3411C196.831 49.4671 197.274 49.3231 197.486 49.0135C197.692 48.7075 197.591 48.3547 197.252 48.2287Z" fill="#4A4A4A"/>
<path d="M200.611 49.4963C200.273 49.3667 199.83 49.5143 199.621 49.8203C199.412 50.1299 199.517 50.4827 199.855 50.6087C200.19 50.7347 200.633 50.5907 200.845 50.2811C201.05 49.9787 200.946 49.6259 200.611 49.4963Z" fill="#DAC727"/>
<path d="M185.545 46.8244C185.207 46.6948 184.764 46.8424 184.552 47.1484C184.343 47.458 184.447 47.8108 184.786 47.9368C185.12 48.0628 185.563 47.9188 185.776 47.6092C185.984 47.3068 185.88 46.954 185.545 46.8244Z" fill="#4A4A4A"/>
<path d="M188.9 48.0959C188.562 47.9663 188.119 48.1139 187.907 48.4199C187.698 48.7295 187.802 49.0823 188.141 49.2083C188.476 49.3343 188.922 49.1903 189.131 48.8807C189.34 48.5783 189.235 48.2255 188.9 48.0959Z" fill="#4A4A4A"/>
<path d="M192.256 49.3664C191.917 49.2368 191.474 49.3844 191.262 49.6904C191.053 50 191.158 50.3528 191.496 50.4788C191.831 50.6048 192.277 50.4608 192.486 50.1512C192.695 49.8452 192.59 49.4924 192.256 49.3664Z" fill="#4A4A4A"/>
<path d="M195.611 50.6369C195.273 50.5073 194.83 50.6549 194.617 50.9609C194.409 51.2669 194.513 51.6233 194.851 51.7493C195.186 51.8753 195.629 51.7313 195.841 51.4217C196.054 51.1121 195.946 50.7629 195.611 50.6369Z" fill="#4A4A4A"/>
<path d="M198.97 51.9084C198.631 51.7788 198.188 51.9264 197.976 52.2324C197.767 52.542 197.872 52.8948 198.21 53.0208C198.545 53.1468 198.988 53.0028 199.2 52.6932C199.409 52.3872 199.304 52.0344 198.97 51.9084Z" fill="#DAC727"/>
<path d="M312.73 38.9157L299.564 35.8089L317.842 33.4473L312.73 38.9157Z" fill="#6189EC"/>
<path d="M312.73 38.9154L316.495 45.8346L299.564 35.8086L312.73 38.9154Z" fill="#284CA4"/>
<path d="M311.945 40.4202L316.495 45.8346L299.564 35.8086L311.945 40.4202Z" fill="white"/>
<path d="M311.945 40.4202L309.673 47.3862L299.564 35.8086L311.945 40.4202Z" fill="#6189EC"/>
<path d="M326.334 16.3725L316.513 10.7457L318.018 9.73047L327.839 15.3609L326.334 16.3725Z" fill="white"/>
<path d="M326.334 16.3726L316.513 10.7422L321.942 23.2702C321.942 23.2702 325.899 30.103 326.442 31.2082C326.986 32.3134 327.407 32.7886 328.498 33.5698C329.589 34.3474 331.759 32.8246 332.231 31.2946C332.703 29.7646 331.644 28.6234 331.644 28.6234L326.334 16.3726Z" fill="#262626"/>
<path d="M321.82 19.8504L312.842 14.6844L317.223 11.7324L326.198 16.8984L321.82 19.8504Z" fill="white"/>
<path opacity="0.2" d="M313.824 14.0225L312.842 14.6849L321.82 19.8509L322.817 19.1777L313.824 14.0225Z" fill="#4A4A4A"/>
<path d="M321.82 19.8504L326.201 16.8984L331.288 28.6344C331.813 29.8512 331.259 31.5 330.053 32.3136C328.843 33.1272 327.432 32.8032 326.907 31.5864L321.82 19.8504Z" fill="white"/>
<path opacity="0.2" d="M321.82 19.8504L326.201 16.8984L331.288 28.6344C331.813 29.8512 331.259 31.5 330.053 32.3136C328.843 33.1272 327.432 32.8032 326.907 31.5864L321.82 19.8504Z" fill="#4A4A4A"/>
<path d="M326.197 16.8984L321.82 19.8504L321.859 19.944L326.241 16.992L326.197 16.8984Z" fill="white"/>
<path opacity="0.2" d="M328.217 31.6547L323.13 19.9187L322.81 19.1807L321.813 19.8503L326.9 31.5863C327.31 32.5367 328.264 32.9399 329.24 32.6807C328.804 32.5007 328.437 32.1515 328.217 31.6547Z" fill="#4A4A4A"/>
<path d="M320.452 20.3399L310.627 14.7095L312.136 13.6943L321.957 19.3247L320.452 20.3399Z" fill="white"/>
<path opacity="0.8" d="M326.334 16.3725L316.513 10.7457L318.018 9.73047L327.839 15.3609L326.334 16.3725Z" fill="#4A4A4A"/>
<path opacity="0.8" d="M320.452 20.3399L310.627 14.7095L312.136 13.6943L321.957 19.3247L320.452 20.3399Z" fill="#4A4A4A"/>
<path d="M320.452 20.3394L310.631 14.709L316.06 27.237C316.366 27.939 316.845 28.4682 317.424 28.7994C320.697 30.675 323.973 32.5506 327.245 34.4298C326.662 34.0986 326.183 33.5694 325.881 32.8674L320.452 20.3394Z" fill="#4A4A4A"/>
<path d="M313.021 18.399L315.775 24.753C315.955 25.1634 316.312 25.6206 316.575 25.7718L318.609 26.9382C318.871 27.0894 318.94 26.877 318.76 26.463L316.006 20.109C315.826 19.6986 315.469 19.2414 315.207 19.0902L313.173 17.9238C312.91 17.7762 312.841 17.9886 313.021 18.399Z" fill="#F5F7FF"/>
<path d="M320.452 20.3398L321.957 19.3246L322.299 20.1166L327.386 31.8526C327.911 33.0694 329.322 33.3934 330.528 32.5798C331.734 31.7662 332.292 30.1174 331.763 28.9006L326.334 16.3726L327.839 15.3574L333.268 27.8854C334.157 29.9338 333.221 32.7202 331.184 34.0918C329.146 35.4634 326.766 34.9162 325.877 32.8642L320.452 20.3398Z" fill="#262626"/>
<path d="M332.202 26.3516L331.853 27.9356L333.203 28.8356L329.358 30.38L328.361 27.8996L332.202 26.3516Z" fill="#FA4343"/>
<path d="M204.651 18.1148C204.715 17.9672 204.715 17.7944 204.651 17.6432C202.995 17.2364 202.041 16.2788 201.63 14.6228C201.479 14.558 201.31 14.558 201.159 14.6228C200.752 16.2788 199.794 17.2328 198.138 17.6432C198.073 17.7944 198.073 17.9636 198.138 18.1148C199.794 18.5216 200.748 19.4792 201.159 21.1352C201.31 21.2 201.479 21.2 201.63 21.1352C202.041 19.4792 202.998 18.5216 204.651 18.1148Z" fill="#4A4A4A"/>
<path d="M246.911 55.7779C246.976 55.6303 246.976 55.4575 246.911 55.3063C245.255 54.8995 244.301 53.9419 243.89 52.2859C243.739 52.2211 243.57 52.2211 243.419 52.2859C243.012 53.9419 242.054 54.8959 240.398 55.3063C240.334 55.4575 240.334 55.6267 240.398 55.7779C242.054 56.1847 243.008 57.1423 243.419 58.7983C243.57 58.8631 243.739 58.8631 243.89 58.7983C244.301 57.1423 245.255 56.1883 246.911 55.7779Z" fill="#FA4343"/>
<path d="M301.562 23.6519C301.627 23.5043 301.627 23.3315 301.562 23.1803C299.906 22.7735 298.952 21.8159 298.542 20.1599C298.391 20.0951 298.222 20.0951 298.07 20.1599C297.664 21.8159 296.706 22.7699 295.05 23.1803C294.985 23.3315 294.985 23.5007 295.05 23.6519C296.706 24.0587 297.664 25.0163 298.07 26.6723C298.222 26.7371 298.391 26.7371 298.542 26.6723C298.949 25.0163 299.906 24.0587 301.562 23.6519Z" fill="white"/>
<path d="M216.271 92.9557C216.235 92.7397 216.08 92.5633 215.868 92.5021L213.877 91.9405L215.71 87.9265C215.818 87.6961 215.753 87.4225 215.558 87.2569C215.364 87.0913 215.083 87.0805 214.874 87.2245L208.186 91.8289C208.006 91.9549 207.912 92.1709 207.948 92.3869C207.984 92.6029 208.142 92.7793 208.351 92.8405L210.342 93.4021L208.506 97.4161C208.402 97.6465 208.463 97.9201 208.657 98.0821C208.722 98.1325 208.79 98.1721 208.866 98.1937C209.024 98.2369 209.197 98.2117 209.341 98.1145L216.03 93.5101C216.217 93.3877 216.307 93.1717 216.271 92.9557Z" fill="white"/>
<path d="M337.764 81.9069C337.728 81.6909 337.573 81.5145 337.361 81.4533L335.37 80.8917L337.203 76.8777C337.311 76.6473 337.246 76.3737 337.051 76.2081C336.857 76.0425 336.576 76.0317 336.367 76.1757L329.679 80.7801C329.499 80.9061 329.405 81.1221 329.441 81.3381C329.477 81.5541 329.635 81.7305 329.844 81.7917L331.835 82.3533L329.999 86.3673C329.895 86.5977 329.956 86.8713 330.15 87.0333C330.215 87.0837 330.283 87.1233 330.359 87.1449C330.517 87.1881 330.69 87.1629 330.834 87.0657L337.523 82.4613C337.71 82.3389 337.8 82.1229 337.764 81.9069Z" fill="#FFD04F"/>
<path d="M292.076 46.8499C289.826 45.7699 287.89 43.7611 282.965 43.6387C278.036 43.5199 261.026 43.6387 261.026 43.6387L261.386 64.0471H293.156L292.076 46.8499Z" fill="#DAC727"/>
<path d="M282.126 50.9004C282.126 50.9004 295.554 57.3192 296.634 58.2192L299.636 115.16H264.518L260.45 59.0004L264.288 54.1044L282.126 50.9004Z" fill="#4A4A4A"/>
<path d="M286.27 51.0336C286.27 51.0336 283.12 66.6468 282.353 78.7968C281.586 90.9468 282.983 115.157 282.983 115.157H314.483C314.483 115.157 310.613 70.1568 309.353 65.2068C308.093 60.2568 307.103 60.0012 305.663 58.6908C304.223 57.3768 301.973 56.8656 301.973 56.8656C301.973 56.8656 301.973 53.6004 300.803 52.452C299.633 51.3036 292.973 47.3868 292.073 46.8468C291.173 46.3068 287.22 45.9576 286.27 51.0336Z" fill="#F0DB2B"/>
<path d="M312.222 90.259L301.642 89.125C301.375 94.183 301.728 108.129 302.063 115.16H314.486C314.486 115.16 313.421 102.758 312.222 90.259Z" fill="#DAC727"/>
<path d="M265.127 51.3466C265.127 51.3466 264.115 64.5226 264.716 75.3226C265.318 86.1226 268.496 115.164 268.496 115.164H260.155L260.814 105.084C260.814 105.084 257.995 97.225 256.854 93.805C252.113 98.3662 248.574 101.664 248.095 102.384C247.616 103.104 246.896 104.785 245.636 105.865C244.376 106.945 243.656 107.064 243.656 107.064C243.656 107.064 242.695 109.163 241.198 109.883C239.696 110.603 238.616 110.664 238.616 110.664H227.575C227.575 110.664 225.415 103.525 225.534 102.323C225.653 101.124 226.614 98.1214 228.234 96.6238C230.275 93.8626 232.014 92.365 233.274 91.7026C236.575 86.6626 242.033 77.9038 242.033 77.9038C245.154 71.1826 249.892 63.565 250.554 62.2438C251.213 60.9226 252.775 58.5826 253.495 57.8626C254.215 57.1426 255 56.6026 255 56.6026C255 56.6026 257.365 51.6814 258.791 50.9614C260.216 50.2414 265.127 51.3466 265.127 51.3466Z" fill="#F0DB2B"/>
<path d="M252.005 59.8242C251.659 60.3426 251.317 60.8862 251.026 61.383C251.314 64.695 251.774 69.7998 252.16 73.5798C252.779 79.6386 253.916 88.3398 253.798 88.5198C253.679 88.6998 248.639 79.761 248.516 80.5386C248.408 81.237 252.264 90.4422 255.007 95.5758C255.601 95.007 256.217 94.4166 256.858 93.801C254.492 85.2978 251.461 72.7842 252.005 59.8242Z" fill="#DAC727"/>
<path d="M241.586 93.8297C240.776 93.0629 241.903 94.5965 242.936 97.5665C243.97 100.536 243.973 103.776 243.656 107.063C243.656 107.063 244.376 106.944 245.636 105.864C246.896 104.784 247.616 103.103 248.095 102.383C248.11 102.362 248.131 102.333 248.153 102.308C246.439 97.6025 242.335 94.5389 241.586 93.8297Z" fill="#DAC727"/>
<path d="M253.34 58.0245C255.072 59.4933 256.487 63.6225 257.29 66.0633C258.236 68.9433 261.97 77.2233 263.05 79.1601C264.13 81.0969 264.356 81.8169 264.266 80.8593C264.176 79.9017 261.52 74.4369 259.226 69.0801C256.93 63.7233 255 56.6025 255 56.6025C255 56.6025 254.215 57.1425 253.495 57.8625C253.448 57.9093 253.398 57.9633 253.34 58.0245Z" fill="#DAC727"/>
<path d="M258.791 50.9614C257.88 51.4222 256.584 53.6002 255.767 55.1122C257.297 58.021 261.03 61.9198 264.562 64.051C264.691 57.0634 265.127 51.3466 265.127 51.3466C265.127 51.3466 260.216 50.2414 258.791 50.9614Z" fill="#DAC727"/>
<path d="M284.545 75.7829C283.044 78.2129 283.206 78.9365 282.986 80.8553C282.731 83.0693 284.653 77.3129 285.463 76.0061C286.273 74.6993 290.73 68.9861 296.353 62.8193C300.133 58.6757 303.506 58.2365 305.314 58.3949C303.888 57.3005 301.98 56.8613 301.98 56.8613C296.576 61.4801 286.046 73.3529 284.545 75.7829Z" fill="#DAC727"/>
<path d="M265.527 54.7805C265.527 54.7805 266.045 63.0029 267.337 66.4661C268.63 69.9329 272.367 71.6429 276.867 68.8961C281.367 66.1493 284.574 59.8061 284.589 55.5761C284.607 51.3461 284.38 47.4473 284.38 47.4473H265.523V54.7805H265.527Z" fill="#FFD9BA"/>
<path d="M272.784 62.6429C274.642 61.9121 282.036 58.2293 284.545 51.7169C284.484 49.2437 284.38 47.4473 284.38 47.4473H265.523V54.7805C265.523 54.7805 266.041 63.0029 267.334 66.4661C267.946 68.1077 269.109 69.3533 270.635 69.9221C273.418 70.1813 271.672 65.7389 271.503 65.1161C271.323 64.4429 270.837 63.4097 272.784 62.6429Z" fill="#F7A486"/>
<path d="M253.517 41.8103C254.377 47.2859 255.353 51.7823 258.463 55.5335C261.574 59.2811 265.375 61.7471 268.608 61.7219C271.841 61.7003 282.277 59.3279 284.624 48.6935C286.19 46.4075 292.26 40.0319 290.348 29.6891C288.437 19.3463 279.433 10.9583 265.498 14.2343C251.569 17.5103 250.55 32.1911 253.517 41.8103Z" fill="#FFD9BA"/>
<path d="M252.16 32.4033L277.684 34.7865C277.684 34.7865 280.65 39.6933 285.913 40.1001L290.021 41.3277C290.021 41.3277 291.666 37.7601 291.58 33.7533C292.257 34.5201 293.157 34.4589 293.157 34.4589L291.58 28.7385L290.367 20.5485C290.367 20.5485 288.16 13.6833 280.557 11.8365C272.953 9.98973 255.267 19.0365 255.267 19.0365C255.267 19.0365 251.699 26.7585 252.16 32.4033Z" fill="#4A4A4A"/>
<path opacity="0.6" d="M291.58 28.7419L291.335 27.0859L277.244 34.7467L277.684 34.7863C277.684 34.7863 278.782 36.5971 280.819 38.1127C283.71 36.7519 288.844 33.9583 291.94 30.0487L291.58 28.7419Z" fill="#262626"/>
<path d="M256.21 43.8984C256.411 44.8812 257.142 45.5652 257.837 45.4212C258.535 45.2808 258.939 44.3664 258.741 43.3836C258.539 42.3972 257.812 41.7168 257.11 41.8572C256.415 42.0012 256.012 42.912 256.21 43.8984Z" fill="#4A4A4A"/>
<path d="M272.827 43.3721C273.011 44.3585 273.727 45.0533 274.429 44.9237C275.131 44.7941 275.552 43.8869 275.365 42.8969C275.182 41.9105 274.465 41.2121 273.763 41.3417C273.061 41.4749 272.644 42.3821 272.827 43.3721Z" fill="#4A4A4A"/>
<path d="M259.712 43.2864C258.683 42.2568 257.7 41.3964 256.771 41.6088C255.842 41.8212 255.292 43.0992 255.306 43.5204C255.043 43.4628 254.352 42.6852 254.352 42.6852L254.845 42.48C255.112 41.796 255.482 40.8744 256.886 40.734C258.211 40.5936 259.284 41.778 259.712 43.2864Z" fill="#262626"/>
<path d="M270.811 42.9725C271.844 41.3597 274.951 39.4409 276.251 42.5585C277.129 42.3785 277.68 41.5289 277.68 41.5289C277.68 41.5289 277.205 41.3669 276.838 41.1329C276.038 40.3661 274.958 39.6101 273.425 39.9197C271.895 40.2293 271.02 41.4317 270.811 42.9725Z" fill="#262626"/>
<path d="M270.689 38.4153L269.832 37.6124C269.832 37.6124 271.43 36.8384 273.274 36.5144C275.117 36.1868 278.357 36.3957 278.357 36.3957C278.357 36.3957 273.58 37.4253 270.689 38.4153Z" fill="#262626"/>
<path d="M259.367 39.045L259.641 38.0909C259.641 38.0909 258.251 37.6986 256.861 37.7958C255.475 37.8894 253.341 38.8001 253.341 38.8001C253.341 38.8001 257.009 38.7354 259.367 39.045Z" fill="#262626"/>
<path d="M262.985 45.7597C262.985 45.7597 262.513 47.6641 262.61 48.1537C262.711 48.6397 263.158 48.9601 263.683 49.2049C262.927 49.2337 262.139 48.7225 262.013 48.0997C261.89 47.4733 263.096 45.2953 262.985 45.7597Z" fill="#B86E5E"/>
<path d="M264.756 48.8592C264.429 48.8196 264.436 48.4488 264.781 48.3588C265.127 48.2724 265.735 48.6756 265.735 48.6756C265.735 48.6756 265.001 48.888 264.756 48.8592Z" fill="#B86E5E"/>
<path d="M262.852 52.9341C262.837 52.6641 263.251 52.3905 264.785 52.0737C266.322 51.7533 271.531 51.0909 271.754 51.4509C271.978 51.8109 271.967 56.0157 267.845 56.7753C263.784 57.5277 262.877 53.3661 262.852 52.9341Z" fill="#78241E"/>
<path d="M271.506 53.7444C271.056 54.9972 270.03 56.3724 267.841 56.7756C265.699 57.1716 264.443 56.1996 263.726 55.134C265.325 53.082 269.116 51.6132 271.506 53.7444Z" fill="#FA6E72"/>
<path d="M264.785 52.0738C266.056 51.811 269.825 51.3106 271.225 51.3466C270.073 52.4698 267.391 53.269 265.22 53.521C263.996 53.6578 263.284 53.4382 262.877 53.1106C262.862 53.035 262.852 52.9702 262.848 52.9342C262.834 52.6642 263.248 52.3906 264.785 52.0738Z" fill="white"/>
<path d="M283.645 42.688C284.084 38.9836 286.064 37.1368 288.131 37.9864C290.194 38.836 292.346 47.7784 284.156 48.4876L283.645 42.688Z" fill="#FFD9BA"/>
<path d="M250.403 29.685C250.403 29.685 251.432 35.4306 251.976 37.6266C262.013 39.3258 282.22 37.605 291.58 28.7418L290.539 20.5518C290.536 20.5518 282.4 30.495 250.403 29.685Z" fill="#F0DB2B"/>
<path d="M282.231 22.6797H263.687C267.244 31.9965 275.29 38.9265 275.542 38.3865C275.794 37.8465 274.847 32.4465 274.847 32.4465C277.817 35.7837 284.344 38.0733 284.344 37.5333C284.344 36.9933 283.487 32.5833 283.487 32.5833C283.487 32.5833 286.234 34.7001 286.324 34.5201C286.414 34.3401 285.971 29.3397 282.231 22.6797Z" fill="#4A4A4A"/>
<path d="M255.266 24.17C255.266 24.17 252.696 27.788 252.16 36.3272C250.723 36.0932 249.776 32.09 249.776 32.09C249.776 32.09 247.796 32.9468 246.94 32.99C247.706 30.4232 246.122 22.5932 250.403 18.1832C248.966 17.5532 247.66 15.674 247.66 15.674C247.66 15.674 251.486 14.36 257.47 11.6132C263.456 8.86645 267.82 6.79645 277.496 9.85645C277.496 8.14645 277.723 6.38965 277.723 6.38965C277.723 6.38965 280.11 8.18965 280.56 11.8364L279.883 16.9664L255.266 24.17Z" fill="#4A4A4A"/>
<path d="M282.537 38.4156C282.537 38.4156 283.797 45.8604 284.203 45.1404C284.61 44.4204 286.763 40.6836 286.831 35.6436L282.537 38.4156Z" fill="#4A4A4A"/>
<path d="M288.178 17.0596L286.709 21.0808C290.338 23.662 293.218 22.762 293.369 22.6792C293.517 22.6 290.997 19.6984 288.178 17.0596Z" fill="#4A4A4A"/>
<path d="M240.154 91.7777C240.391 90.9461 239.905 90.0821 239.074 89.8445C238.242 89.6069 237.378 90.0929 237.141 90.9245L236.755 92.2817L239.765 93.1385L240.154 91.7777Z" fill="#FF7892"/>
<path d="M235.215 109.45L232.147 108.583L236.73 92.2676L239.794 93.1388L235.215 109.45Z" fill="#FFAD29"/>
<path d="M234.473 109.241L232.889 108.791L237.472 92.4795L239.056 92.9295L234.473 109.241Z" fill="#FFD04F"/>
<path d="M236.653 92.0631L236.062 94.1445L239.39 95.0897L239.981 93.0083L236.653 92.0631Z" fill="#4A4A4A"/>
<path d="M306.941 59.8242C311.394 62.9598 316.376 71.1174 320.214 78.9798C324.055 86.8386 324.761 88.0986 325.668 89.3586C326.575 90.6186 331.795 96.7386 332.875 98.6574C333.955 100.576 334.196 104.237 333.534 106.909C332.875 109.58 330.053 112.669 328.973 112.953C327.893 113.237 326.392 112.787 326.392 112.787C326.392 112.787 325.672 112.787 324.53 112.953C323.389 113.119 319.67 112.787 319.67 112.787L313.435 104.36L311.455 99.8598C311.455 99.8598 305.605 97.401 304.45 96.501C303.294 95.601 301.134 91.281 301.433 84.081C301.735 76.881 302.128 67.1898 306.941 59.8242Z" fill="#F0DB2B"/>
<path d="M327.367 112.989C328.066 111.837 329.823 108.644 329.787 105.796C329.74 102.243 325.78 98.4629 323.847 97.5629C321.913 96.6629 313.72 98.6285 312.687 98.6573C311.65 98.6861 312.01 97.2929 312.46 96.0329C312.91 94.7729 320.967 89.7761 320.2 89.9129C319.433 90.0497 314.08 92.1629 311.83 95.2229C310.858 96.5441 310.224 97.9625 309.814 99.1505C310.764 99.5681 311.452 99.8561 311.452 99.8561L312.161 101.473L316.459 100.893C318.259 98.1461 322.356 97.5017 324.426 98.6573C326.496 99.8129 329.243 102.736 329.243 106.066C329.243 109.396 326.392 112.787 326.392 112.787C326.392 112.787 326.813 112.913 327.367 112.989Z" fill="#DAC727"/>
<path d="M193.267 74.6816C193.206 73.8176 192.461 73.1696 191.597 73.2272C190.733 73.2884 190.085 74.0336 190.146 74.8976L190.243 76.3052L193.364 76.0892L193.267 74.6816Z" fill="#FF7892"/>
<path d="M194.61 92.9843L191.435 93.2075L190.214 76.3055L193.39 76.0859L194.61 92.9843Z" fill="#FFAD29"/>
<path d="M193.843 93.038L192.202 93.1533L190.981 76.2549L192.623 76.1396L193.843 93.038Z" fill="#FFD04F"/>
<path d="M193.515 75.9038L190.064 76.1436L190.214 78.302L193.665 78.0622L193.515 75.9038Z" fill="#4A4A4A"/>
<path d="M193.948 94.932L194.61 92.988C194.426 92.5236 193.807 92.538 193.807 92.538C193.537 92.1996 192.382 92.2248 192.162 92.6532C191.885 92.6424 191.514 92.826 191.431 93.2076L192.356 95.0436C192.594 94.9248 192.857 94.8492 193.141 94.8276C193.426 94.806 193.699 94.8456 193.948 94.932Z" fill="#FFD9BA"/>
<path d="M193.948 94.9325C193.696 94.8461 193.422 94.8065 193.141 94.8281C192.86 94.8461 192.594 94.9253 192.356 95.0441L193.282 96.8837L193.948 94.9325Z" fill="#4A4A4A"/>
<path d="M190.135 95.4069C190.398 96.2313 191.28 96.6812 192.104 96.4184C192.929 96.1556 193.379 95.2736 193.116 94.4492L192.688 93.1064L189.707 94.0605L190.135 95.4069Z" fill="#FF7892"/>
<path d="M184.462 77.9534L187.496 76.9814L192.713 93.1022L189.678 94.0706L184.462 77.9534Z" fill="#655C12"/>
<path d="M185.192 77.7198L186.762 77.2158L191.978 93.3366L190.409 93.837L185.192 77.7198Z" fill="#DAC727"/>
<path d="M192.235 91.1622L188.94 92.2178L189.601 94.2782L192.895 93.2226L192.235 91.1622Z" fill="#4A4A4A"/>
<path d="M184.642 75.9059L184.462 77.9543C184.75 78.3611 185.347 78.1991 185.347 78.1991C185.693 78.4655 186.805 78.1631 186.917 77.6951C187.187 77.6375 187.504 77.3711 187.496 76.9823L186.161 75.4199C185.959 75.5927 185.722 75.7295 185.452 75.8159C185.182 75.9023 184.904 75.9311 184.642 75.9059Z" fill="#FFD9BA"/>
<path d="M184.642 75.9055C184.904 75.9307 185.182 75.9019 185.452 75.8155C185.722 75.7291 185.959 75.5923 186.161 75.4195L184.822 73.8535L184.642 75.9055Z" fill="#4A4A4A"/>
<path d="M205.262 72.0826L200.071 70.4014C199.729 70.2898 199.366 70.477 199.254 70.819L191.071 96.073C190.963 96.415 191.147 96.7786 191.489 96.8902L196.68 98.5714C197.018 98.683 197.386 98.4958 197.497 98.1538L205.68 72.8998C205.792 72.5578 205.604 72.1906 205.262 72.0826ZM201.886 73.6594C201.49 73.5298 201.27 73.105 201.4 72.709C201.529 72.313 201.954 72.0934 202.354 72.223C202.75 72.3526 202.969 72.7774 202.84 73.177C202.71 73.573 202.282 73.789 201.886 73.6594Z" fill="#DAC727"/>
<path d="M192.141 94.616L192.11 94.7119L192.575 94.8628L192.606 94.7669L192.141 94.616Z" fill="white"/>
<path d="M192.367 93.9286L192.336 94.0244L192.801 94.1761L192.832 94.0803L192.367 93.9286Z" fill="white"/>
<path d="M192.591 93.2323L192.56 93.3281L193.026 93.4794L193.057 93.3835L192.591 93.2323Z" fill="white"/>
<path d="M193.282 92.699L192.814 92.5479L192.785 92.645L193.249 92.7963L193.282 92.699Z" fill="white"/>
<path d="M193.008 91.954L193.94 92.2564L193.969 92.1591L193.037 91.8604L193.008 91.954Z" fill="white"/>
<path d="M193.256 91.1712L193.226 91.2637L193.691 91.4144L193.721 91.3219L193.256 91.1712Z" fill="white"/>
<path d="M193.486 90.4817L193.457 90.5742L193.922 90.7246L193.952 90.6321L193.486 90.4817Z" fill="white"/>
<path d="M194.175 89.9383L193.71 89.7871L193.678 89.8807L194.146 90.0319L194.175 89.9383Z" fill="white"/>
<path d="M194.398 89.2469L193.933 89.0957L193.901 89.1893L194.369 89.3405L194.398 89.2469Z" fill="white"/>
<path d="M194.621 88.5558L194.156 88.4082L194.128 88.5018L194.592 88.653L194.621 88.5558Z" fill="white"/>
<path d="M194.379 87.722L194.349 87.8145L195.28 88.1162L195.31 88.0238L194.379 87.722Z" fill="white"/>
<path d="M195.071 87.1766L194.603 87.0254L194.574 87.119L195.038 87.2702L195.071 87.1766Z" fill="white"/>
<path d="M195.294 86.4862L194.826 86.335L194.797 86.4286L195.262 86.5798L195.294 86.4862Z" fill="white"/>
<path d="M195.056 85.6473L195.025 85.7432L195.49 85.8942L195.521 85.7983L195.056 85.6473Z" fill="white"/>
<path d="M195.74 85.1034L195.276 84.9521L195.244 85.0493L195.712 85.1969L195.74 85.1034Z" fill="white"/>
<path d="M195.967 84.4119L195.499 84.2607L195.467 84.3543L195.935 84.5091L195.967 84.4119Z" fill="white"/>
<path d="M195.73 83.574L195.699 83.6699L196.63 83.9719L196.661 83.876L195.73 83.574Z" fill="white"/>
<path d="M195.951 82.888L195.921 82.9805L196.387 83.1315L196.417 83.039L195.951 82.888Z" fill="white"/>
<path d="M196.171 82.1888L196.141 82.2812L196.607 82.432L196.637 82.3396L196.171 82.1888Z" fill="white"/>
<path d="M196.86 81.6512L196.392 81.5L196.363 81.5936L196.831 81.7448L196.86 81.6512Z" fill="white"/>
<path d="M197.083 80.9598L196.615 80.8086L196.586 80.9058L197.054 81.0534L197.083 80.9598Z" fill="white"/>
<path d="M197.306 80.2684L196.842 80.1172L196.81 80.2144L197.278 80.3656L197.306 80.2684Z" fill="white"/>
<path d="M197.033 79.5233L197.965 79.8257L197.998 79.7321L197.065 79.4297L197.033 79.5233Z" fill="white"/>
<path d="M197.753 78.8895L197.289 78.7383L197.256 78.8319L197.724 78.9831L197.753 78.8895Z" fill="white"/>
<path d="M197.51 78.0472L197.48 78.1396L197.946 78.2904L197.975 78.1979L197.51 78.0472Z" fill="white"/>
<path d="M197.735 77.3582L197.704 77.4541L198.17 77.6044L198.201 77.5085L197.735 77.3582Z" fill="white"/>
<path d="M198.426 76.8162L197.958 76.665L197.929 76.7586L198.394 76.9098L198.426 76.8162Z" fill="white"/>
<path d="M198.649 76.1251L198.185 75.9775L198.152 76.0675L198.62 76.2187L198.649 76.1251Z" fill="white"/>
<path d="M198.376 75.3797L199.312 75.6821L199.341 75.5885L198.408 75.2861L198.376 75.3797Z" fill="white"/>
<path d="M198.628 74.5925L198.597 74.6885L199.063 74.8387L199.094 74.7428L198.628 74.5925Z" fill="white"/>
<path d="M199.322 74.0545L198.854 73.9033L198.826 73.9969L199.29 74.1481L199.322 74.0545Z" fill="white"/>
<path d="M199.546 73.3641L199.078 73.2129L199.049 73.3065L199.513 73.4577L199.546 73.3641Z" fill="white"/>
<path d="M199.769 72.6727L199.301 72.5215L199.272 72.6187L199.74 72.7699L199.769 72.6727Z" fill="white"/>
<path d="M199.992 71.9813L199.524 71.8301L199.495 71.9273L199.963 72.0785L199.992 71.9813Z" fill="white"/>
<path d="M199.747 71.1384L199.716 71.2344L200.648 71.5349L200.679 71.439L199.747 71.1384Z" fill="white"/>
<path d="M201.266 86.2236C202.105 86.2236 202.735 86.5836 202.825 88.0704C202.915 89.5572 202.015 99.1692 201.878 100.35C201.742 101.527 200.201 102.949 198.991 102.949H188.746C187.536 102.949 185.995 101.524 185.858 100.35C185.722 99.1728 184.822 89.5572 184.912 88.0704C185.002 86.5836 185.632 86.2236 186.47 86.2236H201.266Z" fill="#4A4A4A"/>
<g opacity="0.1">
<path d="M188.778 93.2902C188.969 95.623 188.573 97.5562 187.892 97.6138C187.212 97.6714 186.506 95.8246 186.315 93.4918C186.125 91.159 186.521 89.2257 187.201 89.1681C187.881 89.1141 188.587 90.9574 188.778 93.2902Z" fill="white"/>
</g>
</g>
<path d="M366.792 15.496L350.009 24.6473C349.348 25.0074 349.1 25.8504 349.462 26.5251L350.161 27.836L351.287 27.2232C351.281 26.9721 351.41 26.7251 351.643 26.5987C351.973 26.4169 352.387 26.5459 352.568 26.8832C352.75 27.2206 352.626 27.6403 352.295 27.8221C352.063 27.9485 351.788 27.9248 351.582 27.7805L350.457 28.3933L352.175 31.6216L353.3 31.0089C353.294 30.7578 353.424 30.5107 353.656 30.3844C353.987 30.2026 354.401 30.3315 354.582 30.6689C354.763 31.0063 354.639 31.426 354.309 31.6078C354.076 31.7342 353.802 31.7069 353.596 31.5662L352.47 32.1789L354.188 35.4073L355.314 34.7946C355.308 34.5435 355.437 34.2964 355.67 34.1701C356 33.9882 356.414 34.1172 356.596 34.4546C356.777 34.792 356.653 35.2117 356.322 35.3935C356.09 35.5199 355.815 35.4962 355.609 35.3518L354.484 35.9646L356.202 39.193L357.327 38.5802C357.321 38.3292 357.451 38.0821 357.683 37.9558C358.014 37.7739 358.428 37.9029 358.609 38.2403C358.79 38.5776 358.666 38.9974 358.336 39.1792C358.103 39.3055 357.828 39.2819 357.623 39.1375L356.498 39.7503L358.216 42.9751L359.342 42.3623C359.336 42.1113 359.465 41.8642 359.697 41.7378C360.028 41.556 360.442 41.685 360.623 42.0224C360.805 42.3597 360.681 42.7794 360.35 42.9613C360.117 43.0876 359.842 43.064 359.637 42.9196L358.512 43.5324L360.233 46.7615L361.359 46.1487C361.353 45.8977 361.482 45.6506 361.715 45.5242C362.045 45.3424 362.459 45.4714 362.64 45.8087C362.822 46.1461 362.698 46.5658 362.367 46.7477C362.135 46.874 361.86 46.8504 361.654 46.706L360.529 47.3188L362.25 50.5478L363.376 49.9351C363.37 49.684 363.499 49.4369 363.732 49.3106C364.062 49.1288 364.476 49.2577 364.657 49.5951C364.839 49.9325 364.715 50.3522 364.384 50.534C364.152 50.6604 363.877 50.6331 363.671 50.4924L362.546 51.1051L363.244 52.4196C363.603 53.0936 364.432 53.348 365.096 52.9886L381.875 43.8366C382.54 43.4773 382.784 42.6372 382.422 41.9588L368.63 16.0774C368.281 15.3903 367.453 15.1324 366.792 15.496Z" fill="white"/>
<g opacity="0.4">
<path d="M353.568 26.2441L367.886 18.4898" stroke="#4A4A4A" stroke-width="0.4237" stroke-miterlimit="10"/>
<path d="M355.983 30.8154L370.298 23.0604" stroke="#4A4A4A" stroke-width="0.4237" stroke-miterlimit="10"/>
<path d="M358.394 35.3896L372.713 27.6317" stroke="#4A4A4A" stroke-width="0.4237" stroke-miterlimit="10"/>
<path d="M360.809 39.96L375.125 32.2013" stroke="#4A4A4A" stroke-width="0.4237" stroke-miterlimit="10"/>
<path d="M363.22 44.5312L377.539 36.7769" stroke="#4A4A4A" stroke-width="0.4237" stroke-miterlimit="10"/>
<path d="M365.636 49.1016L379.951 41.3465" stroke="#4A4A4A" stroke-width="0.4237" stroke-miterlimit="10"/>
</g>
<path opacity="0.4" d="M354.201 24.7745L367.371 49.4885" stroke="#4A4A4A" stroke-width="0.4237" stroke-miterlimit="10"/>
<path d="M368.025 95.2901C370.077 92.6879 372.85 89.171 372.85 89.171C373.749 90.0848 374.74 90.8995 375.806 91.6018C375.806 91.6018 373.031 95.1212 370.981 97.7209C370.027 98.9318 370.499 100.807 371.28 102.468C370.749 102.546 370.229 102.688 369.731 102.893L366.524 100.256L363.533 97.7961C363.645 97.2928 363.699 96.778 363.692 96.2625C365.286 96.558 367.049 96.5175 368.025 95.2901Z" fill="#FF902C"/>
<path d="M374.185 92.5932C374.185 92.5932 371.786 95.6359 370.628 97.1045C369.775 98.1866 369.824 99.6286 370.203 100.972L369.217 100.162C368.838 98.8183 368.794 97.3805 369.645 96.2963C370.791 94.8432 373.173 91.821 373.173 91.821L374.185 92.5932Z" fill="#FEC442"/>
<path d="M355.452 98.2222L371.373 111.314L373.642 108.436C374.263 107.648 373.966 106.248 373.61 105.216C373.336 104.434 372.856 103.746 372.223 103.227L363.007 95.648C362.375 95.127 361.614 94.7952 360.808 94.6892C359.745 94.554 358.342 94.5559 357.721 95.3443L355.452 98.2222Z" fill="#FEC442"/>
<path d="M391.156 90.5259C396.792 95.1606 404.132 96.9957 409.937 95.2041C413.766 94.0168 416.438 91.3466 417.261 87.8702C418.841 81.19 411.86 77.1653 407.95 75.9666L407.157 79.0688C407.491 79.1694 415.426 81.6853 414.169 87.0009C413.596 89.4261 411.725 91.2429 408.901 92.1099C404.022 93.6181 397.747 91.9532 392.922 87.8881L390.937 90.3372L391.156 90.5259Z" fill="#FF902C"/>
<path d="M415.963 88.6658C415.963 88.6658 418.718 81.8688 410.509 77.6666L409.258 78.9604C409.258 78.9604 416.152 80.3275 415.963 88.6658Z" fill="#FEC442"/>
<path d="M404.761 93.2676C401.088 93.188 397.539 91.9331 394.613 89.6794L393.532 90.3487C393.532 90.3487 399.94 94.7903 404.761 93.2676Z" fill="#FEC442"/>
<path d="M370.968 73.9252C365.334 69.2925 362.011 62.3591 362.488 56.1864C362.807 52.1126 364.792 48.8775 367.942 47.3144C373.995 44.3123 379.334 50.4188 381.316 54.0652L378.529 55.5284C378.362 55.2166 374.262 47.8363 369.445 50.2243C367.248 51.3134 365.909 53.5673 365.682 56.5702C365.28 61.7607 368.209 67.6644 373.127 71.611L371.219 74.1313L370.968 73.9252Z" fill="#FF902C"/>
<path d="M367.473 48.7933C367.473 48.7933 373.39 44.5961 379.162 51.89L378.191 53.4148C378.191 53.4148 375.397 46.8155 367.473 48.7933Z" fill="#FEC442"/>
<path d="M365.454 60.9454C366.314 64.5928 368.272 67.866 371.052 70.3048L370.64 71.5245C370.64 71.5245 365.026 66.0802 365.454 60.9454Z" fill="#FEC442"/>
<path d="M382.197 49.3079C363.739 72.5722 373.025 90.2219 373.627 91.3032C373.627 91.3032 373.66 91.33 373.654 91.3588C373.647 91.3877 380.059 93.5767 389.129 90.9198C395.741 88.9923 403.739 84.4934 411.706 74.6606C411.873 74.4751 412.035 74.269 412.196 74.0655L411.456 73.483L386.313 52.6886L382.197 49.3079Z" fill="#FEC442"/>
<g style="mix-blend-mode:overlay" opacity="0.5">
<path d="M382.828 79.9128C379.816 77.4362 379.353 72.9196 381.793 69.8248C384.233 66.7299 388.652 66.2286 391.664 68.7052C394.676 71.1818 395.139 75.6984 392.699 78.7932C390.259 81.8881 385.84 82.3894 382.828 79.9128Z" fill="white"/>
</g>
<path d="M388.779 76.9282C388.754 76.9486 388.734 76.9741 388.72 77.0029C388.11 78.095 387.499 79.1855 386.889 80.2746C386.868 80.3003 386.844 80.3312 386.824 80.3828L386.806 80.3683C386.789 80.3442 386.773 80.3185 386.76 80.2915L385.595 77.4395L385.326 76.7942C385.316 76.7622 385.295 76.7347 385.268 76.7164C385.241 76.6981 385.211 76.6863 385.179 76.6819C383.953 76.4292 382.728 76.1693 381.504 75.9186C381.491 75.9083 381.476 75.896 381.437 75.8934C381.633 75.7234 381.816 75.5595 382.003 75.3951C382.607 74.8606 383.212 74.3251 383.82 73.7885C383.99 73.6401 384.153 73.4856 384.321 73.3516C384.35 73.3278 384.374 73.2979 384.39 73.264C384.406 73.224 384.41 73.1804 384.403 73.1382L384.009 69.3916C384.005 69.3622 384.004 69.3326 384.004 69.303C384.003 69.2898 384.002 69.2766 384.003 69.2633L384.382 69.4901C385.348 70.0891 386.324 70.6963 387.286 71.2793C387.307 71.2912 387.33 71.2989 387.355 71.302C387.385 71.3067 387.416 71.3031 387.445 71.2917C388.581 70.7672 389.717 70.2419 390.853 69.7157C390.878 69.7006 390.905 69.6896 390.933 69.6832C390.892 69.9084 390.853 70.1403 390.802 70.3738L390.202 72.9427C390.159 73.1282 390.112 73.3142 390.074 73.5039C390.071 73.5296 390.073 73.5557 390.079 73.5807C390.084 73.6103 390.096 73.6381 390.115 73.6611L392.327 76.1551L392.691 76.569L391.694 76.6585L388.888 76.8993C388.85 76.8984 388.812 76.9083 388.779 76.9282Z" fill="#FF902C"/>
<g style="mix-blend-mode:overlay" opacity="0.5">
<path d="M409.425 74.3496L405.474 71.1003C405.474 71.1003 391.886 90.2745 379.358 89.4689C379.374 89.4694 390.81 94.5584 409.425 74.3496Z" fill="white"/>
</g>
<g style="mix-blend-mode:overlay" opacity="0.4">
<path d="M382.507 52.1965C368.628 70.9367 372.75 88.2807 372.863 88.7394C372.857 88.2544 372.606 72.1396 386.528 55.5035L382.507 52.1965Z" fill="black"/>
</g>
<path opacity="0.98" d="M287.897 49.1458C287.897 49.116 287.874 49.0863 287.868 49.0664C288.077 49.1028 288.293 49.1359 288.511 49.1822C289.31 49.3542 290.105 49.5328 290.903 49.7081C291.077 49.7445 291.251 49.7875 291.425 49.8173C291.45 49.8217 291.476 49.8205 291.501 49.8137C291.526 49.8068 291.549 49.7945 291.569 49.7776C292.329 49.0433 293.086 48.3023 293.845 47.5647C293.961 47.4489 294.08 47.3364 294.222 47.2041L294.322 48.17C294.415 49.0796 294.508 49.9926 294.598 50.9023C294.599 50.9387 294.609 50.9744 294.628 51.0049C294.648 51.0355 294.675 51.0595 294.708 51.0743L297.772 52.7844L297.872 52.844C297.844 52.8669 297.814 52.8869 297.782 52.9035L295.159 54.1042L294.56 54.3755C294.531 54.3873 294.506 54.4072 294.488 54.433C294.47 54.4587 294.459 54.4892 294.457 54.521L293.813 58.1199C293.808 58.1412 293.801 58.1622 293.794 58.1828L293.314 57.6403L291.795 55.9103C291.653 55.7515 291.508 55.5795 291.373 55.4241C291.352 55.3926 291.321 55.3686 291.286 55.355C291.251 55.3414 291.213 55.339 291.177 55.348L287.71 55.8177H287.629H287.591L287.797 55.4439C288.334 54.4879 288.875 53.532 289.406 52.5727C289.417 52.5487 289.422 52.5228 289.422 52.4966C289.422 52.4704 289.417 52.4445 289.406 52.4206C288.898 51.3323 288.405 50.2407 287.897 49.1458Z" fill="#F0DB2B"/>
<path opacity="0.98" d="M192.849 10.7792C192.849 10.7494 192.83 10.7196 192.82 10.6998C193.033 10.7494 193.245 10.7924 193.464 10.8486L195.83 11.5102C196.001 11.5565 196.171 11.6094 196.345 11.6491C196.397 11.6585 196.45 11.6466 196.493 11.616C197.288 10.9214 198.08 10.2201 198.872 9.52219C198.994 9.41303 199.12 9.30718 199.268 9.19141C199.284 9.52219 199.303 9.85297 199.319 10.1606C199.364 11.0769 199.416 11.9898 199.461 12.9061C199.459 12.9421 199.468 12.9779 199.485 13.0091C199.503 13.0402 199.529 13.0654 199.561 13.0814L202.538 14.9503L202.635 15.0165C202.606 15.0364 202.576 15.0541 202.545 15.0694L199.863 16.1312L199.252 16.3727C199.222 16.3827 199.197 16.401 199.177 16.4257C199.158 16.4503 199.146 16.4801 199.142 16.5116C198.868 17.7003 198.593 18.8878 198.318 20.0742C198.312 20.0957 198.305 20.1168 198.296 20.137L197.848 19.5714L196.419 17.762C196.284 17.5933 196.149 17.4312 196.02 17.2559C196 17.2236 195.972 17.1979 195.938 17.182C195.904 17.1661 195.867 17.1608 195.83 17.1666C194.669 17.2658 193.507 17.3617 192.344 17.4544H192.225C192.305 17.3254 192.376 17.2063 192.45 17.0938L194.192 14.3086C194.202 14.2841 194.207 14.2576 194.207 14.2309C194.207 14.2041 194.202 14.1777 194.192 14.1532C193.752 13.0241 193.304 11.8994 192.849 10.7792Z" fill="#F0DB2B"/>
<path opacity="0.98" d="M149.08 74.4605L149 74.4308C149.171 74.2951 149.341 74.1562 149.518 74.0239L151.511 72.5651C151.652 72.4593 151.8 72.3567 151.942 72.2344C151.962 72.2169 151.978 72.1957 151.989 72.1719C152.001 72.148 152.008 72.122 152.01 72.0954C151.992 71.0237 151.974 69.952 151.955 68.8802C151.955 68.7115 151.955 68.5494 151.955 68.3477L152.715 68.9265L154.865 70.5606C154.891 70.5842 154.924 70.5998 154.958 70.6057C154.993 70.6115 155.029 70.6074 155.061 70.5937L158.357 69.426L158.47 69.3896C158.468 69.4266 158.461 69.4633 158.451 69.4988C158.148 70.4316 157.844 71.3644 157.54 72.2972C157.472 72.5089 157.405 72.7239 157.33 72.9356C157.32 72.9654 157.318 72.9975 157.324 73.0284C157.331 73.0593 157.345 73.0879 157.366 73.1109C158.085 74.0834 158.8 75.057 159.513 76.0317L159.548 76.088H158.84L156.571 76.0681C156.358 76.0681 156.146 76.0681 155.927 76.0681C155.89 76.0645 155.852 76.072 155.818 76.0895C155.785 76.1071 155.756 76.1341 155.737 76.1674C155.074 77.1509 154.407 78.1322 153.735 79.1113L153.683 79.1775L153.661 79.2073C153.616 79.0617 153.574 78.9294 153.535 78.8004C153.213 77.7452 152.892 76.6933 152.57 75.6381C152.561 75.6137 152.547 75.5914 152.529 75.5726C152.511 75.5538 152.49 75.539 152.467 75.529L149.08 74.4605Z" fill="#F0DB2B"/>
</g>
<defs>
<linearGradient id="paint0_linear_3394_14349" x1="22.4108" y1="44.6543" x2="33.3587" y2="39.5493" gradientUnits="userSpaceOnUse">
<stop stop-color="white"/>
<stop offset="1" stop-color="#EBEEF2"/>
</linearGradient>
<clipPath id="clip0_3394_14349">
<rect width="443" height="96" fill="white"/>
</clipPath>
<clipPath id="clip1_3394_14349">
<rect width="168" height="168" fill="white" transform="translate(-3 -12)"/>
</clipPath>
<clipPath id="clip2_3394_14349">
<rect width="180" height="93" fill="white" transform="translate(165 2)"/>
</clipPath>
</defs>
</svg>
