<svg width="20" height="20" viewBox="0 0 20 20" fill="none" xmlns="http://www.w3.org/2000/svg">
<g id="checked">
<path id="Vector" d="M10.0001 2.5C5.8647 2.5 2.5 5.8647 2.5 10.0001C2.5 14.1355 5.8647 17.5002 10.0001 17.5002C14.1355 17.5002 17.5002 14.1355 17.5002 10.0001C17.5002 5.8647 14.1355 2.5 10.0001 2.5ZM14.1918 8.02637L9.39857 12.7821C9.11661 13.064 8.66548 13.0828 8.36472 12.8009L5.8271 10.4888C5.52635 10.2068 5.50755 9.73692 5.77071 9.43616C6.05267 9.13541 6.5226 9.11661 6.82335 9.39857L8.83465 11.2407L13.1204 6.95493C13.4212 6.65418 13.8911 6.65418 14.1918 6.95493C14.4926 7.25569 14.4926 7.72562 14.1918 8.02637Z" fill="white"/>
</g>
</svg>
