<svg width="16" height="16" viewBox="0 0 16 16" fill="none" xmlns="http://www.w3.org/2000/svg">
<g id="hourglass" clip-path="url(#clip0_127_7343)">
<g id="XMLID_108_">
<path id="XMLID_109_" d="M2.92793 12.2831C2.92676 12.2936 2.92637 12.3042 2.92565 12.3148C2.9144 12.4664 2.90814 12.6191 2.90814 12.7726V14.5455H1.69602C1.29437 14.5455 0.96875 14.8711 0.96875 15.2727C0.96875 15.6744 1.29437 16 1.69602 16H3.63542H12.3627H14.3021C14.7037 16 15.0294 15.6744 15.0294 15.2727C15.0294 14.8711 14.7037 14.5455 14.3021 14.5455H13.09V12.7726C13.09 12.6142 13.0834 12.4569 13.0714 12.3006C13.071 12.296 13.0709 12.2912 13.0705 12.2866C12.938 10.6073 12.1247 9.06124 10.837 8.00015C12.2481 6.83729 13.09 5.09212 13.09 3.22754V1.45455H14.3021C14.7037 1.45455 15.0294 1.12892 15.0294 0.727273C15.0294 0.325624 14.7037 0 14.3021 0H12.3627H3.63542H1.69602C1.29437 0 0.96875 0.325624 0.96875 0.727273C0.96875 1.12892 1.29437 1.45455 1.69602 1.45455H2.90814V3.22754C2.90814 5.09212 3.74999 6.83724 5.16109 8.0001C3.8743 9.06041 3.06116 10.6051 2.92793 12.2831ZM11.6354 13.0909V14.5455H4.36269V13.0909H11.6354Z" fill="white"/>
</g>
</g>
<defs>
<clipPath id="clip0_127_7343">
<rect width="16" height="16" fill="white"/>
</clipPath>
</defs>
</svg>
