<svg width="16" height="17" viewBox="0 0 16 17" fill="none" xmlns="http://www.w3.org/2000/svg">
<g id="late 2">
<path id="Vector" d="M7.66602 1.1665C3.79933 1.1665 0.666016 4.29985 0.666016 8.1665C0.666016 12.0332 3.79933 15.1665 7.66602 15.1665C7.8327 15.1665 7.99602 15.1598 8.15936 15.1465C7.61909 14.3698 7.33052 13.4459 7.3327 12.4998C7.33293 11.2622 7.82466 10.0754 8.69978 9.20027C9.5749 8.32515 10.7618 7.83342 11.9994 7.83319C12.9454 7.83102 13.8694 8.11959 14.646 8.65985C14.6594 8.4965 14.666 8.33319 14.666 8.1665C14.666 4.29985 11.5327 1.1665 7.66602 1.1665ZM8.3327 8.1665C8.33269 8.34332 8.26245 8.51289 8.13743 8.63791C8.0124 8.76294 7.84283 8.83318 7.66602 8.83319H4.66602C4.48999 8.83199 4.32159 8.76122 4.19755 8.63632C4.07351 8.51143 4.00389 8.34255 4.00389 8.16652C4.00389 7.99049 4.07351 7.82161 4.19755 7.69672C4.32159 7.57182 4.48999 7.50105 4.66602 7.49985H6.99936V3.83319C6.99876 3.74526 7.01556 3.65808 7.04879 3.57666C7.08202 3.49525 7.13103 3.42122 7.193 3.35882C7.25497 3.29643 7.32866 3.24692 7.40985 3.21313C7.49103 3.17934 7.5781 3.16194 7.66603 3.16194C7.75397 3.16194 7.84103 3.17934 7.92222 3.21313C8.0034 3.24692 8.0771 3.29643 8.13906 3.35882C8.20103 3.42122 8.25004 3.49525 8.28327 3.57666C8.31651 3.65808 8.3333 3.74526 8.3327 3.83319V8.1665Z" fill="white"/>
<path id="Vector_2" d="M11.9994 9.1665C11.3401 9.1665 10.6956 9.362 10.1475 9.72827C9.59929 10.0945 9.17205 10.6151 8.91975 11.2242C8.66746 11.8333 8.60145 12.5035 8.73007 13.1502C8.85868 13.7968 9.17615 14.3907 9.64233 14.8569C10.1085 15.3231 10.7025 15.6405 11.3491 15.7691C11.9957 15.8978 12.6659 15.8317 13.275 15.5795C13.8841 15.3272 14.4047 14.8999 14.7709 14.3518C15.1372 13.8036 15.3327 13.1591 15.3327 12.4998C15.3327 12.0621 15.2465 11.6286 15.079 11.2242C14.9115 10.8198 14.6659 10.4523 14.3564 10.1428C14.0469 9.83328 13.6794 9.58775 13.275 9.42023C12.8706 9.25272 12.4371 9.1665 11.9994 9.1665ZM11.9994 14.8332C11.8675 14.8332 11.7386 14.7941 11.629 14.7208C11.5193 14.6476 11.4339 14.5435 11.3834 14.4217C11.3329 14.2998 11.3197 14.1658 11.3454 14.0365C11.3712 13.9071 11.4347 13.7883 11.5279 13.6951C11.6211 13.6019 11.7399 13.5384 11.8693 13.5126C11.9986 13.4869 12.1326 13.5001 12.2545 13.5506C12.3763 13.601 12.4804 13.6865 12.5537 13.7961C12.6269 13.9057 12.666 14.0346 12.666 14.1665C12.666 14.3433 12.5958 14.5129 12.4708 14.6379C12.3457 14.7629 12.1762 14.8332 11.9994 14.8332ZM12.666 12.4998C12.666 12.6767 12.5958 12.8462 12.4708 12.9712C12.3457 13.0963 12.1762 13.1665 11.9994 13.1665C11.8226 13.1665 11.653 13.0963 11.528 12.9712C11.4029 12.8462 11.3327 12.6767 11.3327 12.4998V10.8332C11.3327 10.6564 11.4029 10.4868 11.528 10.3618C11.653 10.2368 11.8226 10.1665 11.9994 10.1665C12.1762 10.1665 12.3457 10.2368 12.4708 10.3618C12.5958 10.4868 12.666 10.6564 12.666 10.8332V12.4998Z" fill="white"/>
</g>
</svg>
