<svg width="16" height="17" viewBox="0 0 16 17" fill="none" xmlns="http://www.w3.org/2000/svg">
<g id="logout 1" clip-path="url(#clip0_127_7325)">
<path id="Vector" d="M9.9999 9.16654C9.63125 9.16654 9.33328 9.46524 9.33328 9.83315V12.4999C9.33328 12.8672 9.03457 13.1665 8.66654 13.1665H6.66656V3.1666C6.66656 2.59727 6.30389 2.08861 5.75861 1.89928L5.56122 1.83324H8.66654C9.03457 1.83324 9.33328 2.13255 9.33328 2.49998V4.49996C9.33328 4.86787 9.63125 5.16658 9.9999 5.16658C10.3685 5.16658 10.6665 4.86787 10.6665 4.49996V2.49998C10.6665 1.39733 9.76919 0.5 8.66654 0.5H1.49998C1.47459 0.5 1.45335 0.511352 1.4287 0.514648C1.39659 0.511963 1.36595 0.5 1.33336 0.5C0.598016 0.5 0 1.09789 0 1.83324V13.8331C0 14.4024 0.362667 14.9111 0.907949 15.1004L4.91999 16.4378C5.05598 16.4798 5.19123 16.4998 5.33332 16.4998C6.06866 16.4998 6.66656 15.9018 6.66656 15.1665V14.4999H8.66654C9.76919 14.4999 10.6665 13.6025 10.6665 12.4999V9.83315C10.6665 9.46524 10.3685 9.16654 9.9999 9.16654Z" fill="white"/>
<path id="Vector_2" d="M15.804 6.69561L13.1373 4.02901C12.9467 3.83834 12.66 3.78096 12.4107 3.88423C12.1621 3.98763 11.9994 4.23091 11.9994 4.50032V6.5003H9.33276C8.96472 6.5003 8.66602 6.79888 8.66602 7.16691C8.66602 7.53495 8.96472 7.83353 9.33276 7.83353H11.9994V9.83351C11.9994 10.1029 12.1621 10.3462 12.4107 10.4496C12.66 10.5529 12.9467 10.4955 13.1373 10.3049L15.804 7.63822C16.0646 7.37761 16.0646 6.95622 15.804 6.69561Z" fill="white"/>
</g>
<defs>
<clipPath id="clip0_127_7325">
<rect width="16" height="16" fill="white" transform="translate(0 0.5)"/>
</clipPath>
</defs>
</svg>
