<svg width="16" height="16" viewBox="0 0 16 16" fill="none" xmlns="http://www.w3.org/2000/svg">
<g id="mail-fill" clip-path="url(#clip0_110_42068)">
<path id="Vector" d="M15.3675 3.48047L10.8184 8.00036L15.3675 12.5203C15.4498 12.3484 15.4997 12.1583 15.4997 11.9554V4.04528C15.4997 3.84234 15.4498 3.65235 15.3675 3.48047Z" fill="#DAC727"/>
<path id="Vector_2" d="M14.182 2.72656H1.81872C1.61578 2.72656 1.42579 2.77646 1.25391 2.85869L7.06825 8.64374C7.58235 9.15784 8.41837 9.15784 8.93247 8.64374L14.7468 2.85869C14.5749 2.77646 14.3849 2.72656 14.182 2.72656Z" fill="#DAC727"/>
<path id="Vector_3" d="M0.632129 3.48047C0.549893 3.65235 0.5 3.84234 0.5 4.04528V11.9554C0.5 12.1584 0.549893 12.3484 0.632129 12.5203L5.18132 8.00036L0.632129 3.48047Z" fill="#DAC727"/>
<path id="Vector_4" d="M10.1976 8.62109L9.55389 9.26483C8.69728 10.1214 7.30342 10.1214 6.44681 9.26483L5.8031 8.62109L1.25391 13.141C1.42579 13.2232 1.61578 13.2731 1.81872 13.2731H14.182C14.3849 13.2731 14.5749 13.2232 14.7468 13.141L10.1976 8.62109Z" fill="#DAC727"/>
</g>
<defs>
<clipPath id="clip0_110_42068">
<rect width="15" height="15" fill="white" transform="translate(0.5 0.5)"/>
</clipPath>
</defs>
</svg>
