<svg width="20" height="21" viewBox="0 0 20 21" fill="none" xmlns="http://www.w3.org/2000/svg">
<path d="M14.584 4.25C12.959 4.25 11.209 4.58333 10.0007 5.5C8.79232 4.58333 7.04232 4.25 5.41732 4.25C4.20898 4.25 2.92565 4.43333 1.85065 4.90833C1.24232 5.18333 0.833984 5.775 0.833984 6.45V15.85C0.833984 16.9333 1.85065 17.7333 2.90065 17.4667C3.71732 17.2583 4.58398 17.1667 5.41732 17.1667C6.71732 17.1667 8.10065 17.3833 9.21732 17.9333C9.71732 18.1833 10.284 18.1833 10.7757 17.9333C11.8923 17.375 13.2757 17.1667 14.5757 17.1667C15.409 17.1667 16.2757 17.2583 17.0923 17.4667C18.1423 17.7417 19.159 16.9417 19.159 15.85V6.45C19.159 5.775 18.7507 5.18333 18.1423 4.90833C17.0757 4.43333 15.7923 4.25 14.584 4.25ZM17.5007 14.8583C17.5007 15.3833 17.0173 15.7667 16.5007 15.675C15.8757 15.5583 15.2257 15.5083 14.584 15.5083C13.1673 15.5083 11.1257 16.05 10.0007 16.7583V7.16667C11.1257 6.45833 13.1673 5.91667 14.584 5.91667C15.3507 5.91667 16.109 5.99167 16.834 6.15C17.2173 6.23333 17.5007 6.575 17.5007 6.96667V14.8583Z" fill="#DAC727"/>
<path d="M11.6502 9.67504C11.3836 9.67504 11.1419 9.50838 11.0586 9.24171C10.9502 8.91671 11.1336 8.55838 11.4586 8.45838C12.7419 8.04171 14.4002 7.90838 15.9252 8.08338C16.2669 8.12504 16.5169 8.43338 16.4752 8.77504C16.4336 9.11671 16.1252 9.36671 15.7836 9.32504C14.4336 9.16671 12.9586 9.29171 11.8419 9.65004C11.7752 9.65838 11.7086 9.67504 11.6502 9.67504Z" fill="#DAC727"/>
<path d="M11.6502 11.8918C11.3836 11.8918 11.1419 11.7252 11.0586 11.4585C10.9502 11.1335 11.1336 10.7752 11.4586 10.6752C12.7336 10.2585 14.4002 10.1252 15.9252 10.3002C16.2669 10.3418 16.5169 10.6502 16.4752 10.9918C16.4336 11.3335 16.1252 11.5835 15.7836 11.5418C14.4336 11.3835 12.9586 11.5085 11.8419 11.8668C11.7752 11.8835 11.7086 11.8918 11.6502 11.8918Z" fill="#DAC727"/>
<path d="M11.6502 14.1081C11.3836 14.1081 11.1419 13.9415 11.0586 13.6748C10.9502 13.3498 11.1336 12.9915 11.4586 12.8915C12.7336 12.4748 14.4002 12.3415 15.9252 12.5165C16.2669 12.5581 16.5169 12.8665 16.4752 13.2081C16.4336 13.5498 16.1252 13.7915 15.7836 13.7581C14.4336 13.5998 12.9586 13.7248 11.8419 14.0831C11.7752 14.0998 11.7086 14.1081 11.6502 14.1081Z" fill="#DAC727"/>
</svg>
