<svg width="40" height="40" viewBox="0 0 40 40" fill="none" xmlns="http://www.w3.org/2000/svg">
<path d="M19.4531 9.04448C21.1504 8.46479 23.6793 8 26.9727 8C33.4602 8 36.9997 9.80629 36.9997 10.7346C36.9997 11.6629 33.4602 13.4692 26.9727 13.4692C26.1828 13.4692 25.4386 13.4417 24.7375 13.3928C23.4119 11.4827 21.5827 9.97757 19.4531 9.04448ZM26.803 22.5816C26.7007 23.197 26.5524 23.8038 26.3591 24.397C26.5621 24.4009 26.7658 24.4035 26.9701 24.4035C30.9842 24.4035 34.7528 23.7063 36.9971 22.5659V20.9241C34.4734 21.9745 30.866 22.5835 26.9701 22.5835L26.803 22.5816ZM25.6149 26.2039C25.3009 26.8228 24.936 27.4145 24.5241 27.973C25.2983 28.024 26.1143 28.0527 26.9721 28.0527C31.808 28.0527 35.3775 27.1721 36.9991 26.2294V24.57C34.4753 25.6203 30.868 26.2294 26.9721 26.2294C26.5155 26.2294 26.0631 26.2209 25.6149 26.2039ZM26.8683 18.9363C26.9367 19.4656 26.9716 19.9987 26.9727 20.5324C26.9727 20.6088 26.9681 20.6845 26.9668 20.7603H26.9727C30.9868 20.7603 34.7554 20.0631 36.9997 18.9226V17.2776C34.476 18.3279 30.8686 18.937 26.9727 18.937L26.8683 18.9363ZM25.814 15.2689C26.0893 15.8634 26.3171 16.4788 26.4955 17.1092C26.6541 17.1092 26.8128 17.1144 26.9727 17.1144C30.9868 17.1144 34.7554 16.4172 36.9997 15.2767V13.2792C34.7861 14.6063 30.8634 15.2911 26.9727 15.2911C26.5863 15.2911 26.1991 15.2826 25.814 15.2689Z" fill="#989EA5"/>
<path d="M13.9491 9.72852C7.90528 9.72852 3.00012 14.6337 3.00012 20.6775C3.00012 26.7214 7.90528 31.6265 13.9491 31.6265C19.993 31.6265 24.8981 26.7214 24.8981 20.6775C24.8981 14.6337 19.993 9.72852 13.9491 9.72852ZM10.982 25.3747L7.05126 21.444C6.62424 21.0169 6.62424 20.3272 7.05126 19.9001C7.47827 19.4731 8.16806 19.4731 8.59507 19.9001L11.7593 23.0535L19.2922 15.5205C19.7193 15.0935 20.4091 15.0935 20.8361 15.5205C21.2631 15.9476 21.2631 16.6373 20.8361 17.0644L12.5258 25.3747C12.1097 25.8017 11.409 25.8017 10.982 25.3747Z" fill="#989EA5"/>
</svg>
