<svg width="20" height="20" viewBox="0 0 20 20" fill="none" xmlns="http://www.w3.org/2000/svg">
<path d="M13.3333 9.1665H11.6667C11.2083 9.1665 10.8333 9.5415 10.8333 9.99984V13.7498C10.8333 14.2082 11.2083 14.5832 11.6667 14.5832H13.3333C13.7917 14.5832 14.1667 14.2082 14.1667 13.7498V9.99984C14.1667 9.5415 13.7917 9.1665 13.3333 9.1665ZM13.3333 2.49984V3.33317H6.66667V2.49984C6.66667 2.0415 6.29167 1.6665 5.83333 1.6665C5.375 1.6665 5 2.0415 5 2.49984V3.33317H4.16667C3.24167 3.33317 2.50833 4.08317 2.50833 4.99984L2.5 16.6665C2.5 17.5832 3.24167 18.3332 4.16667 18.3332H15.8333C16.75 18.3332 17.5 17.5832 17.5 16.6665V4.99984C17.5 4.08317 16.75 3.33317 15.8333 3.33317H15V2.49984C15 2.0415 14.625 1.6665 14.1667 1.6665C13.7083 1.6665 13.3333 2.0415 13.3333 2.49984ZM15 16.6665H5C4.54167 16.6665 4.16667 16.2915 4.16667 15.8332V7.49984H15.8333V15.8332C15.8333 16.2915 15.4583 16.6665 15 16.6665Z" fill="#DAC727"/>
<path d="M8.33333 9.1665H6.66667C6.20833 9.1665 5.83333 9.5415 5.83333 9.99984V12.4998C5.83333 12.9582 6.20833 13.3332 6.66667 13.3332H8.33333C8.79167 13.3332 9.16667 12.9582 9.16667 12.4998V9.99984C9.16667 9.5415 8.79167 9.1665 8.33333 9.1665Z" fill="#DAC727"/>
</svg>
