<svg width="16" height="17" viewBox="0 0 16 17" fill="none" xmlns="http://www.w3.org/2000/svg">
<g id="small-talk 1" clip-path="url(#clip0_127_7328)">
<g id="Group">
<path id="Vector" fill-rule="evenodd" clip-rule="evenodd" d="M5.98938 10.5415C5.98938 9.4342 5.0885 8.5332 3.98108 8.5332C2.87366 8.5332 1.97266 9.4342 1.97266 10.5415C1.97266 11.6489 2.87366 12.5499 3.98108 12.5499C5.0885 12.5499 5.98938 11.6489 5.98938 10.5415Z" fill="white"/>
<path id="Vector_2" fill-rule="evenodd" clip-rule="evenodd" d="M3.9812 12.5498C2.05859 12.5498 0.5 14.1084 0.5 16.031C0.5 16.2899 0.709839 16.4998 0.96875 16.4998H6.99377C7.25269 16.4998 7.46252 16.2899 7.46252 16.031C7.46252 14.1084 5.90393 12.5498 3.9812 12.5498Z" fill="white"/>
<path id="Vector_3" fill-rule="evenodd" clip-rule="evenodd" d="M12.0143 8.5332C10.9069 8.5332 10.0059 9.4342 10.0059 10.5415C10.0059 11.6489 10.9069 12.5499 12.0143 12.5499C13.1217 12.5499 14.0226 11.6489 14.0226 10.5415C14.0226 9.4342 13.1217 8.5332 12.0143 8.5332Z" fill="white"/>
<path id="Vector_4" fill-rule="evenodd" clip-rule="evenodd" d="M12.0145 12.5498C10.0919 12.5498 8.5332 14.1084 8.5332 16.031C8.5332 16.2899 8.74316 16.4998 9.00195 16.4998H15.027C15.2859 16.4998 15.4957 16.2899 15.4957 16.031C15.4957 14.1084 13.9371 12.5498 12.0145 12.5498Z" fill="white"/>
<path id="Vector_5" fill-rule="evenodd" clip-rule="evenodd" d="M12.0142 7.46252C12.8263 7.46252 13.4871 6.80176 13.4871 5.98962V1.9729C13.4871 1.15222 12.8212 0.5 12.0142 0.5H3.98083C3.15955 0.5 2.50781 1.16638 2.50781 1.9729V5.98962C2.50781 6.80176 3.16858 7.46252 3.98083 7.46252H6.33154L7.57825 9.95581C7.65759 10.1146 7.81995 10.215 7.99744 10.215C8.17505 10.215 8.33728 10.1146 8.41675 9.95581L9.66333 7.46252H12.0142ZM9.00159 2.5083C9.26038 2.5083 9.47034 2.71838 9.47034 2.97705C9.47034 3.23584 9.26038 3.4458 9.00159 3.4458C8.74292 3.4458 8.53284 3.23584 8.53284 2.97705C8.53284 2.71838 8.74292 2.5083 9.00159 2.5083ZM6.99329 2.5083C7.25208 2.5083 7.46204 2.71838 7.46204 2.97705C7.46204 3.23584 7.25208 3.4458 6.99329 3.4458C6.7345 3.4458 6.52454 3.23584 6.52454 2.97705C6.52454 2.71838 6.7345 2.5083 6.99329 2.5083ZM7.99744 5.7052C7.26099 5.7052 6.55762 5.35352 6.11609 4.76453C5.96082 4.55737 6.00293 4.26355 6.21008 4.10828C6.41724 3.953 6.71106 3.995 6.86621 4.20215C7.13171 4.55627 7.55457 4.7677 7.99744 4.7677C8.44031 4.7677 8.86316 4.55627 9.12866 4.20215C9.28394 3.995 9.57776 3.95288 9.78491 4.10828C9.99207 4.26355 10.0341 4.55737 9.87878 4.76453C9.43726 5.35352 8.73389 5.7052 7.99744 5.7052Z" fill="white"/>
</g>
</g>
<defs>
<clipPath id="clip0_127_7328">
<rect width="16" height="16" fill="white" transform="translate(0 0.5)"/>
</clipPath>
</defs>
</svg>
