<svg width="16" height="16" viewBox="0 0 16 16" fill="none" xmlns="http://www.w3.org/2000/svg">
<g id="telephone" clip-path="url(#clip0_110_42072)">
<path id="Vector" d="M11.9038 10.4231C11.4138 9.9393 10.802 9.9393 10.3151 10.4231C9.94362 10.7914 9.57217 11.1598 9.20697 11.5343C9.10709 11.6373 9.02281 11.6592 8.90108 11.5905C8.66074 11.4594 8.40479 11.3533 8.17381 11.2097C7.09694 10.5324 6.19486 9.6615 5.3958 8.6814C4.99938 8.19446 4.64667 7.6732 4.40008 7.08638C4.35014 6.96777 4.35951 6.88974 4.45627 6.79297C4.82771 6.43402 5.18979 6.0657 5.55499 5.69738C6.06377 5.18547 6.06377 4.58617 5.55186 4.07115C5.26158 3.77774 4.97129 3.49058 4.68101 3.19717C4.38135 2.89752 4.08483 2.59475 3.78205 2.29822C3.292 1.82065 2.68021 1.82065 2.19328 2.30134C1.81872 2.66966 1.45976 3.04734 1.07896 3.40942C0.726244 3.74341 0.548327 4.1523 0.510871 4.62987C0.451565 5.40709 0.641968 6.14061 0.910404 6.8554C1.45976 8.33492 2.29629 9.64902 3.31073 10.8539C4.68101 12.4832 6.3166 13.7723 8.22999 14.7025C9.09149 15.1208 9.98419 15.4423 10.9549 15.4953C11.6229 15.5328 12.2035 15.3642 12.6686 14.843C12.9869 14.4871 13.3459 14.1625 13.683 13.8223C14.1824 13.3166 14.1855 12.7048 13.6892 12.2054C13.0962 11.6092 12.5 11.0162 11.9038 10.4231Z" fill="#DAC727"/>
<path id="Vector_2" d="M11.3074 7.93564L12.4592 7.739C12.2781 6.68086 11.7787 5.7226 11.0202 4.96099C10.218 4.1588 9.20359 3.65314 8.08614 3.49707L7.92383 4.65509C8.78844 4.77683 9.57503 5.167 10.1962 5.78815C10.783 6.37496 11.1669 7.11785 11.3074 7.93564Z" fill="#DAC727"/>
<path id="Vector_3" d="M13.1078 2.92842C11.7781 1.59872 10.0957 0.759073 8.23848 0.5L8.07617 1.65802C9.68055 1.88276 11.1351 2.61004 12.2838 3.75558C13.3731 4.84493 14.0879 6.22145 14.347 7.73531L15.4988 7.53866C15.196 5.78446 14.3688 4.19257 13.1078 2.92842Z" fill="#DAC727"/>
</g>
<defs>
<clipPath id="clip0_110_42072">
<rect width="15" height="15" fill="white" transform="translate(0.5 0.5)"/>
</clipPath>
</defs>
</svg>
