<svg width="24" height="25" viewBox="0 0 24 25" fill="none" xmlns="http://www.w3.org/2000/svg">
<g id="user-check 1">
<g id="Group">
<path id="Vector" d="M10.0822 2.5C7.60006 2.5 5.58789 4.51217 5.58789 6.99431C5.58789 9.47645 7.60006 11.4886 10.0822 11.4886C12.5643 11.4886 14.5765 9.47645 14.5765 6.99431C14.5765 4.51217 12.5643 2.5 10.0822 2.5Z" fill="white"/>
<path id="Vector_2" d="M10.5292 13.6839C10.7819 13.317 10.5389 12.7574 10.0934 12.7573H8.8972C5.2034 12.7573 2.20898 15.7517 2.20898 19.4455C2.20898 20.9529 3.43098 22.1749 4.93839 22.1749H10.1595C10.6104 22.1749 10.8529 21.6012 10.5912 21.2341C9.82297 20.157 9.37109 18.8386 9.37109 17.4148C9.37109 16.0297 9.79873 14.7444 10.5292 13.6839Z" fill="white"/>
<path id="Vector_3" d="M19.6823 13.4877C17.6982 11.5041 14.4715 11.5041 12.4874 13.4877C10.5042 15.4714 10.5042 18.6989 12.4874 20.6826C13.4795 21.6742 14.7822 22.1698 16.0851 22.1698C17.3879 22.1698 18.6902 21.6742 19.6823 20.6826C21.6659 18.6989 21.6659 15.4714 19.6823 13.4877ZM18.1832 18.584C18.3489 18.7498 18.3489 19.0177 18.1832 19.1835C18.1005 19.2662 17.992 19.3077 17.8834 19.3077C17.7749 19.3077 17.6664 19.2662 17.5837 19.1835L16.085 17.6844L14.5868 19.1831C14.5037 19.2657 14.3952 19.3073 14.2871 19.3073C14.1785 19.3073 14.07 19.2657 13.9873 19.1831C13.8216 19.0173 13.8216 18.7489 13.9873 18.5836L15.4856 17.0849L13.9869 15.5863C13.8211 15.4205 13.8211 15.1522 13.9869 14.9868C14.1522 14.8211 14.4206 14.8211 14.5864 14.9868L16.085 16.4855L17.5837 14.9868C17.7494 14.8211 18.0174 14.8211 18.1831 14.9868C18.3489 15.1522 18.3489 15.4205 18.1831 15.5863L16.6845 17.0849L18.1832 18.584Z" fill="white"/>
</g>
</g>
</svg>
