<svg width="24" height="25" viewBox="0 0 24 25" fill="none" xmlns="http://www.w3.org/2000/svg">
<g id="user-check 1">
<g id="Group">
<path id="Vector" d="M10.0822 2.5C7.60006 2.5 5.58789 4.51217 5.58789 6.99431C5.58789 9.47645 7.60006 11.4886 10.0822 11.4886C12.5643 11.4886 14.5765 9.47645 14.5765 6.99431C14.5765 4.51217 12.5643 2.5 10.0822 2.5Z" fill="white"/>
<path id="Vector_2" d="M10.5292 13.6839C10.7819 13.317 10.5389 12.7574 10.0934 12.7573H8.8972C5.2034 12.7573 2.20898 15.7517 2.20898 19.4455C2.20898 20.9529 3.43098 22.1749 4.93839 22.1749H10.1595C10.6104 22.1749 10.8529 21.6012 10.5912 21.2341C9.82297 20.157 9.37109 18.8386 9.37109 17.4148C9.37109 16.0297 9.79873 14.7444 10.5292 13.6839Z" fill="white"/>
<path id="Vector_3" fill-rule="evenodd" clip-rule="evenodd" d="M21.0417 17.4149C21.0417 20.2234 18.7649 22.5002 15.9564 22.5002C13.1479 22.5002 10.8711 20.2234 10.8711 17.4149C10.8711 14.6064 13.1479 12.3296 15.9564 12.3296C18.7649 12.3296 21.0417 14.6064 21.0417 17.4149ZM18.8664 15.4826C19.178 15.7556 19.2094 16.2294 18.9365 16.541L16.3676 19.474C15.8893 20.0201 15.0479 20.0452 14.5378 19.5286L13.0952 18.0675C12.8042 17.7728 12.8072 17.2979 13.102 17.0069C13.3967 16.7159 13.8716 16.7189 14.1626 17.0136L15.0386 17.9009C15.2426 18.1075 15.5792 18.0975 15.7705 17.879L17.8081 15.5527C18.081 15.2411 18.5549 15.2097 18.8664 15.4826Z" fill="white"/>
</g>
</g>
</svg>
